<mxfile host="65bd71144e" scale="3" border="0">
    <diagram name="horizontal-arch" id="_mjQMc0JSoxqmPY-xcw5">
        <mxGraphModel dx="1976" dy="935" grid="1" gridSize="10" guides="1" tooltips="1" connect="1" arrows="1" fold="1" page="1" pageScale="1" pageWidth="1100" pageHeight="850" math="0" shadow="0">
            <root>
                <mxCell id="ZwsvZCeMGORWDqV-6E7A-0"/>
                <mxCell id="ZwsvZCeMGORWDqV-6E7A-1" parent="ZwsvZCeMGORWDqV-6E7A-0"/>
                <mxCell id="ZwsvZCeMGORWDqV-6E7A-3" style="edgeStyle=orthogonalEdgeStyle;shape=connector;rounded=1;html=1;strokeColor=default;align=center;verticalAlign=middle;fontFamily=Helvetica;fontSize=11;fontColor=default;labelBackgroundColor=default;endArrow=classic;sourcePerimeterSpacing=12;targetPerimeterSpacing=12;" parent="ZwsvZCeMGORWDqV-6E7A-1" source="ZwsvZCeMGORWDqV-6E7A-4" target="ZwsvZCeMGORWDqV-6E7A-13" edge="1">
                    <mxGeometry relative="1" as="geometry">
                        <Array as="points">
                            <mxPoint x="280" y="340"/>
                            <mxPoint x="280" y="340"/>
                        </Array>
                    </mxGeometry>
                </mxCell>
                <mxCell id="ZwsvZCeMGORWDqV-6E7A-4" value="&lt;font face=&quot;acumin pro&quot;&gt;raw data&lt;/font&gt;" style="whiteSpace=wrap;html=1;rounded=1;strokeColor=#6c8ebf;fontFamily=acumin pro thin;fontSize=12;fillColor=#dae8fc;align=left;verticalAlign=bottom;spacingLeft=10;spacingBottom=10;" parent="ZwsvZCeMGORWDqV-6E7A-1" vertex="1">
                    <mxGeometry x="220" y="50" width="120" height="250" as="geometry"/>
                </mxCell>
                <mxCell id="ZwsvZCeMGORWDqV-6E7A-5" value="" style="rounded=1;whiteSpace=wrap;html=1;fontFamily=acumin pro thin;" parent="ZwsvZCeMGORWDqV-6E7A-1" vertex="1">
                    <mxGeometry x="235" y="70" width="80" height="40" as="geometry"/>
                </mxCell>
                <mxCell id="V6tX2_DGJZnMzB2aOUf7-1" style="edgeStyle=orthogonalEdgeStyle;shape=connector;rounded=1;html=1;strokeColor=default;align=center;verticalAlign=middle;fontFamily=Helvetica;fontSize=11;fontColor=default;labelBackgroundColor=default;endArrow=classic;sourcePerimeterSpacing=12;targetPerimeterSpacing=12;" parent="ZwsvZCeMGORWDqV-6E7A-1" source="ZwsvZCeMGORWDqV-6E7A-7" target="ZwsvZCeMGORWDqV-6E7A-18" edge="1">
                    <mxGeometry relative="1" as="geometry">
                        <Array as="points">
                            <mxPoint x="640" y="270"/>
                            <mxPoint x="640" y="270"/>
                        </Array>
                    </mxGeometry>
                </mxCell>
                <mxCell id="ZwsvZCeMGORWDqV-6E7A-7" value="&lt;font face=&quot;acumin pro&quot;&gt;component library&lt;/font&gt;" style="whiteSpace=wrap;html=1;rounded=1;strokeColor=#d6b656;fontFamily=acumin pro thin;fontSize=12;fillColor=#fff2cc;align=left;verticalAlign=bottom;spacingLeft=10;spacingBottom=10;" parent="ZwsvZCeMGORWDqV-6E7A-1" vertex="1">
                    <mxGeometry x="580" y="50" width="120" height="250" as="geometry"/>
                </mxCell>
                <mxCell id="V6tX2_DGJZnMzB2aOUf7-3" style="edgeStyle=orthogonalEdgeStyle;shape=connector;rounded=1;html=1;strokeColor=default;align=center;verticalAlign=middle;fontFamily=Helvetica;fontSize=11;fontColor=default;labelBackgroundColor=default;endArrow=classic;sourcePerimeterSpacing=12;targetPerimeterSpacing=12;" parent="ZwsvZCeMGORWDqV-6E7A-1" source="ZwsvZCeMGORWDqV-6E7A-9" target="ZwsvZCeMGORWDqV-6E7A-13" edge="1">
                    <mxGeometry relative="1" as="geometry">
                        <Array as="points">
                            <mxPoint x="120" y="340"/>
                            <mxPoint x="280" y="340"/>
                        </Array>
                    </mxGeometry>
                </mxCell>
                <mxCell id="ZwsvZCeMGORWDqV-6E7A-9" value="feature extraction&lt;div&gt;rules &amp;amp; methods&lt;/div&gt;" style="rounded=1;whiteSpace=wrap;html=1;fontFamily=acumin pro light;fillColor=#dae8fc;strokeColor=#6c8ebf;" parent="ZwsvZCeMGORWDqV-6E7A-1" vertex="1">
                    <mxGeometry x="60" y="240" width="120" height="60" as="geometry"/>
                </mxCell>
                <mxCell id="ZwsvZCeMGORWDqV-6E7A-10" style="edgeStyle=orthogonalEdgeStyle;shape=connector;rounded=1;html=1;strokeColor=default;align=center;verticalAlign=middle;fontFamily=Helvetica;fontSize=11;fontColor=default;labelBackgroundColor=default;endArrow=classic;sourcePerimeterSpacing=12;targetPerimeterSpacing=12;" parent="ZwsvZCeMGORWDqV-6E7A-1" source="ZwsvZCeMGORWDqV-6E7A-11" target="ZwsvZCeMGORWDqV-6E7A-18" edge="1">
                    <mxGeometry relative="1" as="geometry">
                        <Array as="points">
                            <mxPoint x="800" y="340"/>
                            <mxPoint x="640" y="340"/>
                        </Array>
                    </mxGeometry>
                </mxCell>
                <mxCell id="ZwsvZCeMGORWDqV-6E7A-11" value="semantic mapping rules" style="rounded=1;whiteSpace=wrap;html=1;fontFamily=acumin pro light;fillColor=#fff2cc;strokeColor=#d6b656;" parent="ZwsvZCeMGORWDqV-6E7A-1" vertex="1">
                    <mxGeometry x="740" y="240" width="120" height="60" as="geometry"/>
                </mxCell>
                <mxCell id="ZwsvZCeMGORWDqV-6E7A-12" style="edgeStyle=orthogonalEdgeStyle;shape=connector;rounded=1;html=1;strokeColor=default;align=center;verticalAlign=middle;fontFamily=Helvetica;fontSize=11;fontColor=default;labelBackgroundColor=default;endArrow=classic;sourcePerimeterSpacing=12;targetPerimeterSpacing=12;" parent="ZwsvZCeMGORWDqV-6E7A-1" source="ZwsvZCeMGORWDqV-6E7A-13" target="ZwsvZCeMGORWDqV-6E7A-16" edge="1">
                    <mxGeometry relative="1" as="geometry"/>
                </mxCell>
                <mxCell id="ZwsvZCeMGORWDqV-6E7A-13" value="&lt;i style=&quot;&quot;&gt;&lt;font style=&quot;color: rgb(255, 255, 255);&quot;&gt;transform&lt;/font&gt;&lt;/i&gt;" style="rhombus;whiteSpace=wrap;html=1;fillColor=#000000;fontColor=#FFFFFF;fontFamily=acumin pro;" parent="ZwsvZCeMGORWDqV-6E7A-1" vertex="1">
                    <mxGeometry x="240" y="460.4200000000001" width="80" height="80" as="geometry"/>
                </mxCell>
                <mxCell id="ZwsvZCeMGORWDqV-6E7A-14" value="Semantic building description layer" style="rounded=1;whiteSpace=wrap;html=1;fontFamily=acumin pro thin;fillColor=#e1d5e7;strokeColor=#9673a6;" parent="ZwsvZCeMGORWDqV-6E7A-1" vertex="1">
                    <mxGeometry x="390" y="360" width="120" height="270" as="geometry"/>
                </mxCell>
                <mxCell id="ZwsvZCeMGORWDqV-6E7A-15" style="edgeStyle=orthogonalEdgeStyle;shape=connector;rounded=1;html=1;strokeColor=default;align=center;verticalAlign=middle;fontFamily=Helvetica;fontSize=11;fontColor=default;labelBackgroundColor=default;endArrow=classic;sourcePerimeterSpacing=16;targetPerimeterSpacing=12;" parent="ZwsvZCeMGORWDqV-6E7A-1" source="ZwsvZCeMGORWDqV-6E7A-16" target="ZwsvZCeMGORWDqV-6E7A-18" edge="1">
                    <mxGeometry relative="1" as="geometry"/>
                </mxCell>
                <mxCell id="ZwsvZCeMGORWDqV-6E7A-16" value="Semantic building description layer" style="rounded=1;whiteSpace=wrap;html=1;fontFamily=acumin pro thin;fillColor=#e1d5e7;strokeColor=#9673a6;" parent="ZwsvZCeMGORWDqV-6E7A-1" vertex="1">
                    <mxGeometry x="395" y="365" width="120" height="270" as="geometry"/>
                </mxCell>
                <mxCell id="ZwsvZCeMGORWDqV-6E7A-17" style="edgeStyle=orthogonalEdgeStyle;shape=connector;rounded=1;html=1;strokeColor=default;align=center;verticalAlign=middle;fontFamily=Helvetica;fontSize=11;fontColor=default;labelBackgroundColor=default;endArrow=classic;sourcePerimeterSpacing=12;targetPerimeterSpacing=12;" parent="ZwsvZCeMGORWDqV-6E7A-1" source="ZwsvZCeMGORWDqV-6E7A-18" target="ZwsvZCeMGORWDqV-6E7A-21" edge="1">
                    <mxGeometry relative="1" as="geometry">
                        <Array as="points">
                            <mxPoint x="620" y="500"/>
                            <mxPoint x="620" y="500"/>
                        </Array>
                    </mxGeometry>
                </mxCell>
                <mxCell id="ZwsvZCeMGORWDqV-6E7A-18" value="&lt;i style=&quot;&quot;&gt;&lt;font style=&quot;color: rgb(255, 255, 255);&quot;&gt;compile&lt;/font&gt;&lt;/i&gt;" style="rhombus;whiteSpace=wrap;html=1;fillColor=#000000;fontColor=#FFFFFF;fontFamily=acumin pro;" parent="ZwsvZCeMGORWDqV-6E7A-1" vertex="1">
                    <mxGeometry x="600" y="460.4200000000001" width="80" height="80" as="geometry"/>
                </mxCell>
                <mxCell id="ZwsvZCeMGORWDqV-6E7A-19" value="" style="rounded=1;whiteSpace=wrap;html=1;fontFamily=acumin pro thin;fillColor=#e1d5e7;strokeColor=#9673a6;" parent="ZwsvZCeMGORWDqV-6E7A-1" vertex="1">
                    <mxGeometry x="750" y="475.4200000000001" width="120" height="40" as="geometry"/>
                </mxCell>
                <mxCell id="V6tX2_DGJZnMzB2aOUf7-2" style="edgeStyle=orthogonalEdgeStyle;shape=connector;rounded=1;html=1;strokeColor=default;align=center;verticalAlign=middle;fontFamily=Helvetica;fontSize=11;fontColor=default;labelBackgroundColor=default;endArrow=classic;sourcePerimeterSpacing=12;targetPerimeterSpacing=12;" parent="ZwsvZCeMGORWDqV-6E7A-1" source="ZwsvZCeMGORWDqV-6E7A-21" target="ZwsvZCeMGORWDqV-6E7A-24" edge="1">
                    <mxGeometry relative="1" as="geometry"/>
                </mxCell>
                <mxCell id="ZwsvZCeMGORWDqV-6E7A-21" value="" style="rounded=1;whiteSpace=wrap;html=1;fontFamily=acumin pro thin;fillColor=#e1d5e7;strokeColor=#9673a6;" parent="ZwsvZCeMGORWDqV-6E7A-1" vertex="1">
                    <mxGeometry x="755" y="480.4200000000001" width="120" height="40" as="geometry"/>
                </mxCell>
                <mxCell id="ZwsvZCeMGORWDqV-6E7A-22" value="&lt;font face=&quot;acumin pro light&quot;&gt;energy models&lt;/font&gt;" style="rounded=1;whiteSpace=wrap;html=1;fontFamily=acumin pro thin;fillColor=#e1d5e7;strokeColor=#9673a6;" parent="ZwsvZCeMGORWDqV-6E7A-1" vertex="1">
                    <mxGeometry x="760" y="485.4200000000001" width="120" height="39.15" as="geometry"/>
                </mxCell>
                <mxCell id="ZwsvZCeMGORWDqV-6E7A-23" style="edgeStyle=orthogonalEdgeStyle;shape=connector;rounded=1;html=1;strokeColor=default;align=center;verticalAlign=middle;fontFamily=Helvetica;fontSize=11;fontColor=default;labelBackgroundColor=default;endArrow=classic;sourcePerimeterSpacing=12;targetPerimeterSpacing=12;" parent="ZwsvZCeMGORWDqV-6E7A-1" source="ZwsvZCeMGORWDqV-6E7A-24" target="ZwsvZCeMGORWDqV-6E7A-36" edge="1">
                    <mxGeometry relative="1" as="geometry">
                        <Array as="points">
                            <mxPoint x="973" y="500"/>
                            <mxPoint x="973" y="500"/>
                        </Array>
                    </mxGeometry>
                </mxCell>
                <mxCell id="ZwsvZCeMGORWDqV-6E7A-24" value="&lt;i style=&quot;&quot;&gt;&lt;font style=&quot;color: rgb(255, 255, 255);&quot;&gt;execute&lt;/font&gt;&lt;/i&gt;" style="rhombus;whiteSpace=wrap;html=1;fillColor=#000000;fontColor=#FFFFFF;fontFamily=acumin pro;" parent="ZwsvZCeMGORWDqV-6E7A-1" vertex="1">
                    <mxGeometry x="960" y="460" width="80" height="80" as="geometry"/>
                </mxCell>
                <mxCell id="ZwsvZCeMGORWDqV-6E7A-25" value="" style="group" parent="ZwsvZCeMGORWDqV-6E7A-1" vertex="1" connectable="0">
                    <mxGeometry x="400" y="370" width="120" height="270" as="geometry"/>
                </mxCell>
                <mxCell id="ZwsvZCeMGORWDqV-6E7A-26" value="&lt;font face=&quot;acumin pro light&quot;&gt;semantic building description layer&lt;/font&gt;" style="rounded=1;whiteSpace=wrap;html=1;fontFamily=acumin pro thin;fillColor=#e1d5e7;strokeColor=#9673a6;align=left;verticalAlign=bottom;spacingLeft=10;spacingBottom=10;" parent="ZwsvZCeMGORWDqV-6E7A-25" vertex="1">
                    <mxGeometry width="120" height="270" as="geometry"/>
                </mxCell>
                <mxCell id="ZwsvZCeMGORWDqV-6E7A-27" value="&lt;font face=&quot;acumin pro light&quot;&gt;geometry&lt;/font&gt;" style="rounded=1;whiteSpace=wrap;html=1;fontFamily=acumin pro thin;" parent="ZwsvZCeMGORWDqV-6E7A-25" vertex="1">
                    <mxGeometry x="20" y="15" width="80" height="25" as="geometry"/>
                </mxCell>
                <mxCell id="ZwsvZCeMGORWDqV-6E7A-28" value="&lt;font face=&quot;acumin pro light&quot;&gt;typology&lt;/font&gt;" style="rounded=1;whiteSpace=wrap;html=1;fontFamily=acumin pro thin;" parent="ZwsvZCeMGORWDqV-6E7A-25" vertex="1">
                    <mxGeometry x="20" y="50" width="80" height="25" as="geometry"/>
                </mxCell>
                <mxCell id="ZwsvZCeMGORWDqV-6E7A-29" value="&lt;font face=&quot;acumin pro light&quot;&gt;program&lt;/font&gt;" style="rounded=1;whiteSpace=wrap;html=1;fontFamily=acumin pro thin;" parent="ZwsvZCeMGORWDqV-6E7A-25" vertex="1">
                    <mxGeometry x="20" y="85" width="80" height="25" as="geometry"/>
                </mxCell>
                <mxCell id="ZwsvZCeMGORWDqV-6E7A-30" value="&lt;font face=&quot;acumin pro light&quot;&gt;age&lt;/font&gt;" style="rounded=1;whiteSpace=wrap;html=1;fontFamily=acumin pro thin;" parent="ZwsvZCeMGORWDqV-6E7A-25" vertex="1">
                    <mxGeometry x="20" y="120" width="80" height="25" as="geometry"/>
                </mxCell>
                <mxCell id="ZwsvZCeMGORWDqV-6E7A-31" value="&lt;font face=&quot;acumin pro light&quot;&gt;fuel source&lt;/font&gt;" style="rounded=1;whiteSpace=wrap;html=1;fontFamily=acumin pro thin;" parent="ZwsvZCeMGORWDqV-6E7A-25" vertex="1">
                    <mxGeometry x="20" y="155" width="80" height="25" as="geometry"/>
                </mxCell>
                <mxCell id="ZwsvZCeMGORWDqV-6E7A-32" value="&lt;font face=&quot;acumin pro light&quot;&gt;...&lt;/font&gt;" style="rounded=1;whiteSpace=wrap;html=1;fontFamily=acumin pro thin;dashed=1;" parent="ZwsvZCeMGORWDqV-6E7A-25" vertex="1">
                    <mxGeometry x="20" y="190" width="80" height="25" as="geometry"/>
                </mxCell>
                <mxCell id="ZwsvZCeMGORWDqV-6E7A-33" style="edgeStyle=orthogonalEdgeStyle;shape=connector;rounded=1;html=1;strokeColor=default;align=center;verticalAlign=middle;fontFamily=Helvetica;fontSize=11;fontColor=default;labelBackgroundColor=default;endArrow=classic;sourcePerimeterSpacing=12;targetPerimeterSpacing=12;" parent="ZwsvZCeMGORWDqV-6E7A-1" source="ZwsvZCeMGORWDqV-6E7A-36" target="ZwsvZCeMGORWDqV-6E7A-43" edge="1">
                    <mxGeometry relative="1" as="geometry"/>
                </mxCell>
                <mxCell id="ZwsvZCeMGORWDqV-6E7A-34" style="edgeStyle=orthogonalEdgeStyle;shape=connector;rounded=1;html=1;strokeColor=default;align=center;verticalAlign=middle;fontFamily=Helvetica;fontSize=11;fontColor=default;labelBackgroundColor=default;endArrow=classic;sourcePerimeterSpacing=12;targetPerimeterSpacing=12;" parent="ZwsvZCeMGORWDqV-6E7A-1" source="ZwsvZCeMGORWDqV-6E7A-36" target="ZwsvZCeMGORWDqV-6E7A-44" edge="1">
                    <mxGeometry relative="1" as="geometry"/>
                </mxCell>
                <mxCell id="ZwsvZCeMGORWDqV-6E7A-35" style="edgeStyle=orthogonalEdgeStyle;shape=connector;rounded=1;html=1;strokeColor=default;align=center;verticalAlign=middle;fontFamily=Helvetica;fontSize=11;fontColor=default;labelBackgroundColor=default;endArrow=classic;sourcePerimeterSpacing=12;targetPerimeterSpacing=12;" parent="ZwsvZCeMGORWDqV-6E7A-1" source="ZwsvZCeMGORWDqV-6E7A-36" target="ZwsvZCeMGORWDqV-6E7A-45" edge="1">
                    <mxGeometry relative="1" as="geometry"/>
                </mxCell>
                <mxCell id="ZwsvZCeMGORWDqV-6E7A-36" value="results database" style="shape=datastore;whiteSpace=wrap;html=1;fillColor=#e1d5e7;strokeColor=#9673a6;" parent="ZwsvZCeMGORWDqV-6E7A-1" vertex="1">
                    <mxGeometry x="1113" y="430" width="80" height="140" as="geometry"/>
                </mxCell>
                <mxCell id="ZwsvZCeMGORWDqV-6E7A-43" value="use case 2" style="rounded=1;whiteSpace=wrap;html=1;fontFamily=acumin pro light;fillColor=#d5e8d4;strokeColor=#82b366;" parent="ZwsvZCeMGORWDqV-6E7A-1" vertex="1">
                    <mxGeometry x="1323" y="482.5" width="90" height="35" as="geometry"/>
                </mxCell>
                <mxCell id="ZwsvZCeMGORWDqV-6E7A-44" value="use case 1" style="rounded=1;whiteSpace=wrap;html=1;fontFamily=acumin pro light;fillColor=#d5e8d4;strokeColor=#82b366;" parent="ZwsvZCeMGORWDqV-6E7A-1" vertex="1">
                    <mxGeometry x="1323" y="430" width="90" height="35" as="geometry"/>
                </mxCell>
                <mxCell id="ZwsvZCeMGORWDqV-6E7A-45" value="use case 3" style="rounded=1;whiteSpace=wrap;html=1;fontFamily=acumin pro light;fillColor=#d5e8d4;strokeColor=#82b366;" parent="ZwsvZCeMGORWDqV-6E7A-1" vertex="1">
                    <mxGeometry x="1323" y="530" width="90" height="35" as="geometry"/>
                </mxCell>
                <mxCell id="ZwsvZCeMGORWDqV-6E7A-48" value="step 3" style="text;html=1;align=right;verticalAlign=middle;resizable=0;points=[];autosize=1;strokeColor=none;fillColor=none;" parent="ZwsvZCeMGORWDqV-6E7A-1" vertex="1">
                    <mxGeometry x="120" y="210" width="60" height="30" as="geometry"/>
                </mxCell>
                <mxCell id="ZwsvZCeMGORWDqV-6E7A-49" value="step 2" style="text;html=1;align=right;verticalAlign=middle;resizable=0;points=[];autosize=1;strokeColor=none;fillColor=none;" parent="ZwsvZCeMGORWDqV-6E7A-1" vertex="1">
                    <mxGeometry x="280" y="20" width="60" height="30" as="geometry"/>
                </mxCell>
                <mxCell id="ZwsvZCeMGORWDqV-6E7A-50" value="step 4" style="text;html=1;align=left;verticalAlign=middle;resizable=0;points=[];autosize=1;strokeColor=none;fillColor=none;" parent="ZwsvZCeMGORWDqV-6E7A-1" vertex="1">
                    <mxGeometry x="580" y="20" width="60" height="30" as="geometry"/>
                </mxCell>
                <mxCell id="ZwsvZCeMGORWDqV-6E7A-51" value="step 5" style="text;html=1;align=left;verticalAlign=middle;resizable=0;points=[];autosize=1;strokeColor=none;fillColor=none;" parent="ZwsvZCeMGORWDqV-6E7A-1" vertex="1">
                    <mxGeometry x="740" y="210" width="60" height="30" as="geometry"/>
                </mxCell>
                <mxCell id="ZwsvZCeMGORWDqV-6E7A-52" value="step 6" style="text;html=1;align=center;verticalAlign=middle;resizable=0;points=[];autosize=1;strokeColor=none;fillColor=none;" parent="ZwsvZCeMGORWDqV-6E7A-1" vertex="1">
                    <mxGeometry x="185" y="460" width="60" height="30" as="geometry"/>
                </mxCell>
                <mxCell id="ZwsvZCeMGORWDqV-6E7A-53" value="step 7" style="text;html=1;align=left;verticalAlign=middle;resizable=0;points=[];autosize=1;strokeColor=none;fillColor=none;" parent="ZwsvZCeMGORWDqV-6E7A-1" vertex="1">
                    <mxGeometry x="570" y="460" width="60" height="30" as="geometry"/>
                </mxCell>
                <mxCell id="ZwsvZCeMGORWDqV-6E7A-54" value="step 8" style="text;html=1;align=center;verticalAlign=middle;resizable=0;points=[];autosize=1;strokeColor=none;fillColor=none;" parent="ZwsvZCeMGORWDqV-6E7A-1" vertex="1">
                    <mxGeometry x="920" y="460" width="60" height="30" as="geometry"/>
                </mxCell>
                <mxCell id="ZwsvZCeMGORWDqV-6E7A-55" value="step 9" style="text;html=1;align=center;verticalAlign=middle;resizable=0;points=[];autosize=1;strokeColor=none;fillColor=none;" parent="ZwsvZCeMGORWDqV-6E7A-1" vertex="1">
                    <mxGeometry x="1123" y="400" width="60" height="30" as="geometry"/>
                </mxCell>
                <mxCell id="ZwsvZCeMGORWDqV-6E7A-56" value="step 10" style="text;html=1;align=center;verticalAlign=middle;resizable=0;points=[];autosize=1;strokeColor=none;fillColor=none;" parent="ZwsvZCeMGORWDqV-6E7A-1" vertex="1">
                    <mxGeometry x="1338" y="400" width="60" height="30" as="geometry"/>
                </mxCell>
                <mxCell id="ZwsvZCeMGORWDqV-6E7A-59" value="" style="rounded=1;whiteSpace=wrap;html=1;fontFamily=acumin pro thin;" parent="ZwsvZCeMGORWDqV-6E7A-1" vertex="1">
                    <mxGeometry x="240" y="75" width="80" height="40" as="geometry"/>
                </mxCell>
                <mxCell id="ZwsvZCeMGORWDqV-6E7A-60" value="&lt;font face=&quot;acumin pro light&quot;&gt;GIS datasets&lt;/font&gt;" style="rounded=1;whiteSpace=wrap;html=1;fontFamily=acumin pro thin;" parent="ZwsvZCeMGORWDqV-6E7A-1" vertex="1">
                    <mxGeometry x="245" y="80" width="80" height="40" as="geometry"/>
                </mxCell>
                <mxCell id="ZwsvZCeMGORWDqV-6E7A-61" value="" style="rounded=1;whiteSpace=wrap;html=1;fontFamily=acumin pro thin;" parent="ZwsvZCeMGORWDqV-6E7A-1" vertex="1">
                    <mxGeometry x="235" y="140" width="80" height="40" as="geometry"/>
                </mxCell>
                <mxCell id="ZwsvZCeMGORWDqV-6E7A-62" value="" style="rounded=1;whiteSpace=wrap;html=1;fontFamily=acumin pro thin;" parent="ZwsvZCeMGORWDqV-6E7A-1" vertex="1">
                    <mxGeometry x="240" y="145" width="80" height="40" as="geometry"/>
                </mxCell>
                <mxCell id="ZwsvZCeMGORWDqV-6E7A-63" value="&lt;font face=&quot;acumin pro light&quot;&gt;public databases&lt;/font&gt;" style="rounded=1;whiteSpace=wrap;html=1;fontFamily=acumin pro thin;" parent="ZwsvZCeMGORWDqV-6E7A-1" vertex="1">
                    <mxGeometry x="245" y="150" width="80" height="40" as="geometry"/>
                </mxCell>
                <mxCell id="ZwsvZCeMGORWDqV-6E7A-64" value="" style="rounded=1;whiteSpace=wrap;html=1;fontFamily=acumin pro thin;" parent="ZwsvZCeMGORWDqV-6E7A-1" vertex="1">
                    <mxGeometry x="235" y="210" width="80" height="40" as="geometry"/>
                </mxCell>
                <mxCell id="ZwsvZCeMGORWDqV-6E7A-65" value="" style="rounded=1;whiteSpace=wrap;html=1;fontFamily=acumin pro thin;" parent="ZwsvZCeMGORWDqV-6E7A-1" vertex="1">
                    <mxGeometry x="240" y="215" width="80" height="40" as="geometry"/>
                </mxCell>
                <mxCell id="ZwsvZCeMGORWDqV-6E7A-66" value="&lt;font face=&quot;acumin pro light&quot;&gt;satellite / streetview&lt;/font&gt;" style="rounded=1;whiteSpace=wrap;html=1;fontFamily=acumin pro thin;" parent="ZwsvZCeMGORWDqV-6E7A-1" vertex="1">
                    <mxGeometry x="245" y="220" width="80" height="40" as="geometry"/>
                </mxCell>
                <mxCell id="ZwsvZCeMGORWDqV-6E7A-67" value="" style="rounded=1;whiteSpace=wrap;html=1;fontFamily=acumin pro thin;" parent="ZwsvZCeMGORWDqV-6E7A-1" vertex="1">
                    <mxGeometry x="595" y="75" width="80" height="40" as="geometry"/>
                </mxCell>
                <mxCell id="ZwsvZCeMGORWDqV-6E7A-68" value="" style="rounded=1;whiteSpace=wrap;html=1;fontFamily=acumin pro thin;" parent="ZwsvZCeMGORWDqV-6E7A-1" vertex="1">
                    <mxGeometry x="600" y="80" width="80" height="40" as="geometry"/>
                </mxCell>
                <mxCell id="ZwsvZCeMGORWDqV-6E7A-69" value="&lt;font face=&quot;acumin pro light&quot;&gt;space uses&lt;/font&gt;" style="rounded=1;whiteSpace=wrap;html=1;fontFamily=acumin pro thin;" parent="ZwsvZCeMGORWDqV-6E7A-1" vertex="1">
                    <mxGeometry x="605" y="85" width="80" height="40" as="geometry"/>
                </mxCell>
                <mxCell id="ZwsvZCeMGORWDqV-6E7A-70" value="" style="rounded=1;whiteSpace=wrap;html=1;fontFamily=acumin pro thin;" parent="ZwsvZCeMGORWDqV-6E7A-1" vertex="1">
                    <mxGeometry x="595" y="145" width="80" height="40" as="geometry"/>
                </mxCell>
                <mxCell id="ZwsvZCeMGORWDqV-6E7A-71" value="" style="rounded=1;whiteSpace=wrap;html=1;fontFamily=acumin pro thin;" parent="ZwsvZCeMGORWDqV-6E7A-1" vertex="1">
                    <mxGeometry x="600" y="150" width="80" height="40" as="geometry"/>
                </mxCell>
                <mxCell id="ZwsvZCeMGORWDqV-6E7A-72" value="&lt;font face=&quot;acumin pro light&quot;&gt;envelopes&lt;/font&gt;" style="rounded=1;whiteSpace=wrap;html=1;fontFamily=acumin pro thin;" parent="ZwsvZCeMGORWDqV-6E7A-1" vertex="1">
                    <mxGeometry x="605" y="155" width="80" height="40" as="geometry"/>
                </mxCell>
                <mxCell id="ZwsvZCeMGORWDqV-6E7A-73" value="" style="rounded=1;whiteSpace=wrap;html=1;fontFamily=acumin pro thin;" parent="ZwsvZCeMGORWDqV-6E7A-1" vertex="1">
                    <mxGeometry x="595" y="215" width="80" height="40" as="geometry"/>
                </mxCell>
                <mxCell id="ZwsvZCeMGORWDqV-6E7A-74" value="" style="rounded=1;whiteSpace=wrap;html=1;fontFamily=acumin pro thin;" parent="ZwsvZCeMGORWDqV-6E7A-1" vertex="1">
                    <mxGeometry x="600" y="220" width="80" height="40" as="geometry"/>
                </mxCell>
                <mxCell id="ZwsvZCeMGORWDqV-6E7A-75" value="&lt;div&gt;&lt;font face=&quot;acumin pro light&quot;&gt;hvac&lt;/font&gt;&lt;/div&gt;&lt;div&gt;&lt;font face=&quot;acumin pro light&quot;&gt;systems&lt;/font&gt;&lt;/div&gt;" style="rounded=1;whiteSpace=wrap;html=1;fontFamily=acumin pro thin;" parent="ZwsvZCeMGORWDqV-6E7A-1" vertex="1">
                    <mxGeometry x="605" y="225" width="80" height="40" as="geometry"/>
                </mxCell>
                <mxCell id="V6tX2_DGJZnMzB2aOUf7-5" value="" style="group" parent="ZwsvZCeMGORWDqV-6E7A-1" vertex="1" connectable="0">
                    <mxGeometry x="50" y="660" width="820" height="80" as="geometry"/>
                </mxCell>
                <mxCell id="ZwsvZCeMGORWDqV-6E7A-2" value="" style="rounded=1;whiteSpace=wrap;html=1;fillColor=none;dashed=1;" parent="V6tX2_DGJZnMzB2aOUf7-5" vertex="1">
                    <mxGeometry width="820" height="80" as="geometry"/>
                </mxCell>
                <mxCell id="ZwsvZCeMGORWDqV-6E7A-37" value="" style="rounded=1;whiteSpace=wrap;html=1;fontFamily=acumin pro light;fillColor=#dae8fc;strokeColor=#6c8ebf;align=left;" parent="V6tX2_DGJZnMzB2aOUf7-5" vertex="1">
                    <mxGeometry x="210" y="10" width="40" height="40" as="geometry"/>
                </mxCell>
                <mxCell id="ZwsvZCeMGORWDqV-6E7A-38" value="GIS team" style="text;html=1;align=center;verticalAlign=middle;resizable=0;points=[];autosize=1;strokeColor=none;fillColor=none;" parent="V6tX2_DGJZnMzB2aOUf7-5" vertex="1">
                    <mxGeometry x="195" y="50" width="70" height="30" as="geometry"/>
                </mxCell>
                <mxCell id="ZwsvZCeMGORWDqV-6E7A-39" value="" style="rounded=1;whiteSpace=wrap;html=1;fontFamily=acumin pro light;fillColor=#fff2cc;strokeColor=#d6b656;" parent="V6tX2_DGJZnMzB2aOUf7-5" vertex="1">
                    <mxGeometry x="560" y="10" width="40" height="40" as="geometry"/>
                </mxCell>
                <mxCell id="ZwsvZCeMGORWDqV-6E7A-40" value="constructions team" style="text;html=1;align=center;verticalAlign=middle;resizable=0;points=[];autosize=1;strokeColor=none;fillColor=none;" parent="V6tX2_DGJZnMzB2aOUf7-5" vertex="1">
                    <mxGeometry x="520" y="50" width="120" height="30" as="geometry"/>
                </mxCell>
                <mxCell id="ZwsvZCeMGORWDqV-6E7A-41" value="" style="rounded=1;whiteSpace=wrap;html=1;fontFamily=acumin pro light;fillColor=#e1d5e7;strokeColor=#9673a6;" parent="V6tX2_DGJZnMzB2aOUf7-5" vertex="1">
                    <mxGeometry x="390" y="10" width="40" height="40" as="geometry"/>
                </mxCell>
                <mxCell id="ZwsvZCeMGORWDqV-6E7A-42" value="SWE team" style="text;html=1;align=center;verticalAlign=middle;resizable=0;points=[];autosize=1;strokeColor=none;fillColor=none;" parent="V6tX2_DGJZnMzB2aOUf7-5" vertex="1">
                    <mxGeometry x="370" y="50" width="80" height="30" as="geometry"/>
                </mxCell>
                <mxCell id="ZwsvZCeMGORWDqV-6E7A-46" value="" style="rounded=1;whiteSpace=wrap;html=1;fontFamily=acumin pro light;fillColor=#d5e8d4;strokeColor=#82b366;" parent="V6tX2_DGJZnMzB2aOUf7-5" vertex="1">
                    <mxGeometry x="740" y="10" width="40" height="40" as="geometry"/>
                </mxCell>
                <mxCell id="ZwsvZCeMGORWDqV-6E7A-47" value="engagement team" style="text;html=1;align=center;verticalAlign=middle;resizable=0;points=[];autosize=1;strokeColor=none;fillColor=none;" parent="V6tX2_DGJZnMzB2aOUf7-5" vertex="1">
                    <mxGeometry x="700" y="50" width="120" height="30" as="geometry"/>
                </mxCell>
                <mxCell id="ZwsvZCeMGORWDqV-6E7A-57" value="step 1" style="text;html=1;align=left;verticalAlign=middle;resizable=0;points=[];autosize=1;strokeColor=none;fillColor=none;" parent="V6tX2_DGJZnMzB2aOUf7-5" vertex="1">
                    <mxGeometry x="5" width="60" height="30" as="geometry"/>
                </mxCell>
                <mxCell id="ZwsvZCeMGORWDqV-6E7A-58" value="scope definition" style="text;html=1;align=left;verticalAlign=middle;resizable=0;points=[];autosize=1;strokeColor=none;fillColor=none;" parent="V6tX2_DGJZnMzB2aOUf7-5" vertex="1">
                    <mxGeometry x="5" y="50" width="110" height="30" as="geometry"/>
                </mxCell>
            </root>
        </mxGraphModel>
    </diagram>
    <diagram name="Copy of Copy of Copy of Page-1" id="P9t4K3rx6pxq80AdcXk7">
        <mxGraphModel dx="1501" dy="1149" grid="1" gridSize="10" guides="1" tooltips="1" connect="1" arrows="1" fold="1" page="1" pageScale="1" pageWidth="850" pageHeight="1100" math="0" shadow="0">
            <root>
                <mxCell id="rZfcWMC6x7CmexXKer-F-0"/>
                <mxCell id="rZfcWMC6x7CmexXKer-F-1" parent="rZfcWMC6x7CmexXKer-F-0"/>
                <mxCell id="lEf2kKPvKqd58rhF332F-3" value="" style="rounded=1;whiteSpace=wrap;html=1;fillColor=none;dashed=1;" parent="rZfcWMC6x7CmexXKer-F-1" vertex="1">
                    <mxGeometry x="10" y="30" width="820" height="80" as="geometry"/>
                </mxCell>
                <mxCell id="rZfcWMC6x7CmexXKer-F-2" style="edgeStyle=none;shape=connector;rounded=1;html=1;strokeColor=default;align=center;verticalAlign=middle;fontFamily=Helvetica;fontSize=11;fontColor=default;labelBackgroundColor=default;endArrow=classic;sourcePerimeterSpacing=12;targetPerimeterSpacing=12;" parent="rZfcWMC6x7CmexXKer-F-1" source="rZfcWMC6x7CmexXKer-F-3" target="rZfcWMC6x7CmexXKer-F-29" edge="1">
                    <mxGeometry relative="1" as="geometry"/>
                </mxCell>
                <mxCell id="rZfcWMC6x7CmexXKer-F-3" value="&lt;font face=&quot;acumin pro&quot;&gt;raw data&lt;/font&gt;" style="whiteSpace=wrap;html=1;rounded=1;strokeColor=#6c8ebf;fontFamily=acumin pro thin;fontSize=12;fillColor=#dae8fc;align=left;verticalAlign=bottom;spacingLeft=10;spacingBottom=10;" parent="rZfcWMC6x7CmexXKer-F-1" vertex="1">
                    <mxGeometry x="180" y="140" width="120" height="250" as="geometry"/>
                </mxCell>
                <mxCell id="rZfcWMC6x7CmexXKer-F-6" value="" style="rounded=1;whiteSpace=wrap;html=1;fontFamily=acumin pro thin;" parent="rZfcWMC6x7CmexXKer-F-1" vertex="1">
                    <mxGeometry x="195" y="160" width="80" height="40" as="geometry"/>
                </mxCell>
                <mxCell id="rZfcWMC6x7CmexXKer-F-13" style="edgeStyle=none;shape=connector;rounded=1;html=1;strokeColor=default;align=center;verticalAlign=middle;fontFamily=Helvetica;fontSize=11;fontColor=default;labelBackgroundColor=default;endArrow=classic;sourcePerimeterSpacing=12;targetPerimeterSpacing=12;" parent="rZfcWMC6x7CmexXKer-F-1" source="rZfcWMC6x7CmexXKer-F-14" target="rZfcWMC6x7CmexXKer-F-34" edge="1">
                    <mxGeometry relative="1" as="geometry"/>
                </mxCell>
                <mxCell id="rZfcWMC6x7CmexXKer-F-14" value="&lt;font face=&quot;acumin pro&quot;&gt;component library&lt;/font&gt;" style="whiteSpace=wrap;html=1;rounded=1;strokeColor=#d6b656;fontFamily=acumin pro thin;fontSize=12;fillColor=#fff2cc;align=left;verticalAlign=bottom;spacingLeft=10;spacingBottom=10;" parent="rZfcWMC6x7CmexXKer-F-1" vertex="1">
                    <mxGeometry x="540" y="140" width="120" height="250" as="geometry"/>
                </mxCell>
                <mxCell id="rZfcWMC6x7CmexXKer-F-24" style="edgeStyle=orthogonalEdgeStyle;shape=connector;rounded=1;html=1;strokeColor=default;align=center;verticalAlign=middle;fontFamily=Helvetica;fontSize=11;fontColor=default;labelBackgroundColor=default;endArrow=classic;sourcePerimeterSpacing=12;targetPerimeterSpacing=12;" parent="rZfcWMC6x7CmexXKer-F-1" source="rZfcWMC6x7CmexXKer-F-25" target="rZfcWMC6x7CmexXKer-F-29" edge="1">
                    <mxGeometry relative="1" as="geometry">
                        <Array as="points">
                            <mxPoint x="70" y="570"/>
                        </Array>
                    </mxGeometry>
                </mxCell>
                <mxCell id="rZfcWMC6x7CmexXKer-F-25" value="feature extraction&lt;div&gt;rules &amp;amp; methods&lt;/div&gt;" style="rounded=1;whiteSpace=wrap;html=1;fontFamily=acumin pro light;fillColor=#dae8fc;strokeColor=#6c8ebf;" parent="rZfcWMC6x7CmexXKer-F-1" vertex="1">
                    <mxGeometry x="10" y="330" width="120" height="60" as="geometry"/>
                </mxCell>
                <mxCell id="rZfcWMC6x7CmexXKer-F-26" style="edgeStyle=orthogonalEdgeStyle;shape=connector;rounded=1;html=1;strokeColor=default;align=center;verticalAlign=middle;fontFamily=Helvetica;fontSize=11;fontColor=default;labelBackgroundColor=default;endArrow=classic;sourcePerimeterSpacing=12;targetPerimeterSpacing=12;" parent="rZfcWMC6x7CmexXKer-F-1" source="rZfcWMC6x7CmexXKer-F-27" target="rZfcWMC6x7CmexXKer-F-34" edge="1">
                    <mxGeometry relative="1" as="geometry">
                        <Array as="points">
                            <mxPoint x="770" y="570"/>
                        </Array>
                    </mxGeometry>
                </mxCell>
                <mxCell id="rZfcWMC6x7CmexXKer-F-27" value="semantic mapping rules" style="rounded=1;whiteSpace=wrap;html=1;fontFamily=acumin pro light;fillColor=#fff2cc;strokeColor=#d6b656;" parent="rZfcWMC6x7CmexXKer-F-1" vertex="1">
                    <mxGeometry x="710" y="330" width="120" height="60" as="geometry"/>
                </mxCell>
                <mxCell id="rZfcWMC6x7CmexXKer-F-28" style="edgeStyle=none;shape=connector;rounded=1;html=1;strokeColor=default;align=center;verticalAlign=middle;fontFamily=Helvetica;fontSize=11;fontColor=default;labelBackgroundColor=default;endArrow=classic;sourcePerimeterSpacing=12;targetPerimeterSpacing=24;" parent="rZfcWMC6x7CmexXKer-F-1" source="rZfcWMC6x7CmexXKer-F-29" target="rZfcWMC6x7CmexXKer-F-32" edge="1">
                    <mxGeometry relative="1" as="geometry"/>
                </mxCell>
                <mxCell id="rZfcWMC6x7CmexXKer-F-29" value="&lt;i style=&quot;&quot;&gt;&lt;font style=&quot;color: rgb(255, 255, 255);&quot;&gt;transform&lt;/font&gt;&lt;/i&gt;" style="rhombus;whiteSpace=wrap;html=1;fillColor=#000000;fontColor=#FFFFFF;fontFamily=acumin pro;" parent="rZfcWMC6x7CmexXKer-F-1" vertex="1">
                    <mxGeometry x="200" y="530" width="80" height="80" as="geometry"/>
                </mxCell>
                <mxCell id="rZfcWMC6x7CmexXKer-F-30" value="Semantic building description layer" style="rounded=1;whiteSpace=wrap;html=1;fontFamily=acumin pro thin;fillColor=#e1d5e7;strokeColor=#9673a6;" parent="rZfcWMC6x7CmexXKer-F-1" vertex="1">
                    <mxGeometry x="360" y="430" width="120" height="270" as="geometry"/>
                </mxCell>
                <mxCell id="rZfcWMC6x7CmexXKer-F-31" style="edgeStyle=orthogonalEdgeStyle;shape=connector;rounded=1;html=1;strokeColor=default;align=center;verticalAlign=middle;fontFamily=Helvetica;fontSize=11;fontColor=default;labelBackgroundColor=default;endArrow=classic;sourcePerimeterSpacing=16;targetPerimeterSpacing=12;" parent="rZfcWMC6x7CmexXKer-F-1" source="rZfcWMC6x7CmexXKer-F-32" target="rZfcWMC6x7CmexXKer-F-34" edge="1">
                    <mxGeometry relative="1" as="geometry"/>
                </mxCell>
                <mxCell id="rZfcWMC6x7CmexXKer-F-32" value="Semantic building description layer" style="rounded=1;whiteSpace=wrap;html=1;fontFamily=acumin pro thin;fillColor=#e1d5e7;strokeColor=#9673a6;" parent="rZfcWMC6x7CmexXKer-F-1" vertex="1">
                    <mxGeometry x="365" y="435" width="120" height="270" as="geometry"/>
                </mxCell>
                <mxCell id="rZfcWMC6x7CmexXKer-F-33" style="edgeStyle=orthogonalEdgeStyle;shape=connector;rounded=1;html=1;strokeColor=default;align=center;verticalAlign=middle;fontFamily=Helvetica;fontSize=11;fontColor=default;labelBackgroundColor=default;endArrow=classic;sourcePerimeterSpacing=12;targetPerimeterSpacing=12;" parent="rZfcWMC6x7CmexXKer-F-1" source="rZfcWMC6x7CmexXKer-F-34" target="rZfcWMC6x7CmexXKer-F-37" edge="1">
                    <mxGeometry relative="1" as="geometry">
                        <Array as="points">
                            <mxPoint x="600" y="785"/>
                        </Array>
                    </mxGeometry>
                </mxCell>
                <mxCell id="rZfcWMC6x7CmexXKer-F-34" value="&lt;i style=&quot;&quot;&gt;&lt;font style=&quot;color: rgb(255, 255, 255);&quot;&gt;compile&lt;/font&gt;&lt;/i&gt;" style="rhombus;whiteSpace=wrap;html=1;fillColor=#000000;fontColor=#FFFFFF;fontFamily=acumin pro;" parent="rZfcWMC6x7CmexXKer-F-1" vertex="1">
                    <mxGeometry x="560" y="530" width="80" height="80" as="geometry"/>
                </mxCell>
                <mxCell id="rZfcWMC6x7CmexXKer-F-35" value="" style="rounded=1;whiteSpace=wrap;html=1;fontFamily=acumin pro thin;fillColor=#e1d5e7;strokeColor=#9673a6;" parent="rZfcWMC6x7CmexXKer-F-1" vertex="1">
                    <mxGeometry x="365" y="760" width="120" height="40" as="geometry"/>
                </mxCell>
                <mxCell id="rZfcWMC6x7CmexXKer-F-36" style="edgeStyle=orthogonalEdgeStyle;shape=connector;rounded=1;html=1;strokeColor=default;align=center;verticalAlign=middle;fontFamily=Helvetica;fontSize=11;fontColor=default;labelBackgroundColor=default;endArrow=classic;sourcePerimeterSpacing=12;targetPerimeterSpacing=12;" parent="rZfcWMC6x7CmexXKer-F-1" source="rZfcWMC6x7CmexXKer-F-37" target="rZfcWMC6x7CmexXKer-F-40" edge="1">
                    <mxGeometry relative="1" as="geometry"/>
                </mxCell>
                <mxCell id="rZfcWMC6x7CmexXKer-F-37" value="" style="rounded=1;whiteSpace=wrap;html=1;fontFamily=acumin pro thin;fillColor=#e1d5e7;strokeColor=#9673a6;" parent="rZfcWMC6x7CmexXKer-F-1" vertex="1">
                    <mxGeometry x="370" y="765" width="120" height="40" as="geometry"/>
                </mxCell>
                <mxCell id="rZfcWMC6x7CmexXKer-F-38" value="&lt;font face=&quot;acumin pro light&quot;&gt;energy models&lt;/font&gt;" style="rounded=1;whiteSpace=wrap;html=1;fontFamily=acumin pro thin;fillColor=#e1d5e7;strokeColor=#9673a6;" parent="rZfcWMC6x7CmexXKer-F-1" vertex="1">
                    <mxGeometry x="375" y="770" width="120" height="39.15" as="geometry"/>
                </mxCell>
                <mxCell id="rZfcWMC6x7CmexXKer-F-39" style="edgeStyle=orthogonalEdgeStyle;shape=connector;rounded=1;html=1;strokeColor=default;align=center;verticalAlign=middle;fontFamily=Helvetica;fontSize=11;fontColor=default;labelBackgroundColor=default;endArrow=classic;sourcePerimeterSpacing=12;targetPerimeterSpacing=12;" parent="rZfcWMC6x7CmexXKer-F-1" source="rZfcWMC6x7CmexXKer-F-40" target="rZfcWMC6x7CmexXKer-F-52" edge="1">
                    <mxGeometry relative="1" as="geometry">
                        <Array as="points">
                            <mxPoint x="240" y="920"/>
                        </Array>
                    </mxGeometry>
                </mxCell>
                <mxCell id="rZfcWMC6x7CmexXKer-F-40" value="&lt;i style=&quot;&quot;&gt;&lt;font style=&quot;color: rgb(255, 255, 255);&quot;&gt;execute&lt;/font&gt;&lt;/i&gt;" style="rhombus;whiteSpace=wrap;html=1;fillColor=#000000;fontColor=#FFFFFF;fontFamily=acumin pro;" parent="rZfcWMC6x7CmexXKer-F-1" vertex="1">
                    <mxGeometry x="200" y="745" width="80" height="80" as="geometry"/>
                </mxCell>
                <mxCell id="rZfcWMC6x7CmexXKer-F-41" value="" style="group" parent="rZfcWMC6x7CmexXKer-F-1" vertex="1" connectable="0">
                    <mxGeometry x="370" y="440" width="120" height="270" as="geometry"/>
                </mxCell>
                <mxCell id="rZfcWMC6x7CmexXKer-F-42" value="&lt;font face=&quot;acumin pro light&quot;&gt;semantic building description layer&lt;/font&gt;" style="rounded=1;whiteSpace=wrap;html=1;fontFamily=acumin pro thin;fillColor=#e1d5e7;strokeColor=#9673a6;align=left;verticalAlign=bottom;spacingLeft=10;spacingBottom=10;" parent="rZfcWMC6x7CmexXKer-F-41" vertex="1">
                    <mxGeometry width="120" height="270" as="geometry"/>
                </mxCell>
                <mxCell id="rZfcWMC6x7CmexXKer-F-43" value="&lt;font face=&quot;acumin pro light&quot;&gt;geometry&lt;/font&gt;" style="rounded=1;whiteSpace=wrap;html=1;fontFamily=acumin pro thin;" parent="rZfcWMC6x7CmexXKer-F-41" vertex="1">
                    <mxGeometry x="20" y="15" width="80" height="25" as="geometry"/>
                </mxCell>
                <mxCell id="rZfcWMC6x7CmexXKer-F-44" value="&lt;font face=&quot;acumin pro light&quot;&gt;typology&lt;/font&gt;" style="rounded=1;whiteSpace=wrap;html=1;fontFamily=acumin pro thin;" parent="rZfcWMC6x7CmexXKer-F-41" vertex="1">
                    <mxGeometry x="20" y="50" width="80" height="25" as="geometry"/>
                </mxCell>
                <mxCell id="rZfcWMC6x7CmexXKer-F-45" value="&lt;font face=&quot;acumin pro light&quot;&gt;program&lt;/font&gt;" style="rounded=1;whiteSpace=wrap;html=1;fontFamily=acumin pro thin;" parent="rZfcWMC6x7CmexXKer-F-41" vertex="1">
                    <mxGeometry x="20" y="85" width="80" height="25" as="geometry"/>
                </mxCell>
                <mxCell id="rZfcWMC6x7CmexXKer-F-46" value="&lt;font face=&quot;acumin pro light&quot;&gt;age&lt;/font&gt;" style="rounded=1;whiteSpace=wrap;html=1;fontFamily=acumin pro thin;" parent="rZfcWMC6x7CmexXKer-F-41" vertex="1">
                    <mxGeometry x="20" y="120" width="80" height="25" as="geometry"/>
                </mxCell>
                <mxCell id="rZfcWMC6x7CmexXKer-F-47" value="&lt;font face=&quot;acumin pro light&quot;&gt;fuel source&lt;/font&gt;" style="rounded=1;whiteSpace=wrap;html=1;fontFamily=acumin pro thin;" parent="rZfcWMC6x7CmexXKer-F-41" vertex="1">
                    <mxGeometry x="20" y="155" width="80" height="25" as="geometry"/>
                </mxCell>
                <mxCell id="rZfcWMC6x7CmexXKer-F-48" value="&lt;font face=&quot;acumin pro light&quot;&gt;...&lt;/font&gt;" style="rounded=1;whiteSpace=wrap;html=1;fontFamily=acumin pro thin;dashed=1;" parent="rZfcWMC6x7CmexXKer-F-41" vertex="1">
                    <mxGeometry x="20" y="190" width="80" height="25" as="geometry"/>
                </mxCell>
                <mxCell id="rZfcWMC6x7CmexXKer-F-49" style="edgeStyle=orthogonalEdgeStyle;shape=connector;rounded=1;html=1;strokeColor=default;align=center;verticalAlign=middle;fontFamily=Helvetica;fontSize=11;fontColor=default;labelBackgroundColor=default;endArrow=classic;sourcePerimeterSpacing=12;targetPerimeterSpacing=12;" parent="rZfcWMC6x7CmexXKer-F-1" source="rZfcWMC6x7CmexXKer-F-52" target="rZfcWMC6x7CmexXKer-F-59" edge="1">
                    <mxGeometry relative="1" as="geometry"/>
                </mxCell>
                <mxCell id="rZfcWMC6x7CmexXKer-F-50" style="edgeStyle=orthogonalEdgeStyle;shape=connector;rounded=1;html=1;strokeColor=default;align=center;verticalAlign=middle;fontFamily=Helvetica;fontSize=11;fontColor=default;labelBackgroundColor=default;endArrow=classic;sourcePerimeterSpacing=12;targetPerimeterSpacing=12;" parent="rZfcWMC6x7CmexXKer-F-1" source="rZfcWMC6x7CmexXKer-F-52" target="rZfcWMC6x7CmexXKer-F-60" edge="1">
                    <mxGeometry relative="1" as="geometry"/>
                </mxCell>
                <mxCell id="rZfcWMC6x7CmexXKer-F-51" style="edgeStyle=orthogonalEdgeStyle;shape=connector;rounded=1;html=1;strokeColor=default;align=center;verticalAlign=middle;fontFamily=Helvetica;fontSize=11;fontColor=default;labelBackgroundColor=default;endArrow=classic;sourcePerimeterSpacing=12;targetPerimeterSpacing=12;" parent="rZfcWMC6x7CmexXKer-F-1" source="rZfcWMC6x7CmexXKer-F-52" target="rZfcWMC6x7CmexXKer-F-61" edge="1">
                    <mxGeometry relative="1" as="geometry"/>
                </mxCell>
                <mxCell id="rZfcWMC6x7CmexXKer-F-52" value="results database" style="shape=datastore;whiteSpace=wrap;html=1;fillColor=#e1d5e7;strokeColor=#9673a6;" parent="rZfcWMC6x7CmexXKer-F-1" vertex="1">
                    <mxGeometry x="390" y="855" width="80" height="140" as="geometry"/>
                </mxCell>
                <mxCell id="rZfcWMC6x7CmexXKer-F-53" value="" style="rounded=1;whiteSpace=wrap;html=1;fontFamily=acumin pro light;fillColor=#dae8fc;strokeColor=#6c8ebf;align=left;" parent="rZfcWMC6x7CmexXKer-F-1" vertex="1">
                    <mxGeometry x="220" y="40" width="40" height="40" as="geometry"/>
                </mxCell>
                <mxCell id="rZfcWMC6x7CmexXKer-F-54" value="GIS team" style="text;html=1;align=center;verticalAlign=middle;resizable=0;points=[];autosize=1;strokeColor=none;fillColor=none;" parent="rZfcWMC6x7CmexXKer-F-1" vertex="1">
                    <mxGeometry x="205" y="80" width="70" height="30" as="geometry"/>
                </mxCell>
                <mxCell id="rZfcWMC6x7CmexXKer-F-55" value="" style="rounded=1;whiteSpace=wrap;html=1;fontFamily=acumin pro light;fillColor=#fff2cc;strokeColor=#d6b656;" parent="rZfcWMC6x7CmexXKer-F-1" vertex="1">
                    <mxGeometry x="570" y="40" width="40" height="40" as="geometry"/>
                </mxCell>
                <mxCell id="rZfcWMC6x7CmexXKer-F-56" value="constructions team" style="text;html=1;align=center;verticalAlign=middle;resizable=0;points=[];autosize=1;strokeColor=none;fillColor=none;" parent="rZfcWMC6x7CmexXKer-F-1" vertex="1">
                    <mxGeometry x="530" y="80" width="120" height="30" as="geometry"/>
                </mxCell>
                <mxCell id="rZfcWMC6x7CmexXKer-F-57" value="" style="rounded=1;whiteSpace=wrap;html=1;fontFamily=acumin pro light;fillColor=#e1d5e7;strokeColor=#9673a6;" parent="rZfcWMC6x7CmexXKer-F-1" vertex="1">
                    <mxGeometry x="400" y="40" width="40" height="40" as="geometry"/>
                </mxCell>
                <mxCell id="rZfcWMC6x7CmexXKer-F-58" value="SWE team" style="text;html=1;align=center;verticalAlign=middle;resizable=0;points=[];autosize=1;strokeColor=none;fillColor=none;" parent="rZfcWMC6x7CmexXKer-F-1" vertex="1">
                    <mxGeometry x="380" y="80" width="80" height="30" as="geometry"/>
                </mxCell>
                <mxCell id="rZfcWMC6x7CmexXKer-F-59" value="use case 2" style="rounded=1;whiteSpace=wrap;html=1;fontFamily=acumin pro light;fillColor=#d5e8d4;strokeColor=#82b366;" parent="rZfcWMC6x7CmexXKer-F-1" vertex="1">
                    <mxGeometry x="600" y="907.5" width="90" height="35" as="geometry"/>
                </mxCell>
                <mxCell id="rZfcWMC6x7CmexXKer-F-60" value="use case 1" style="rounded=1;whiteSpace=wrap;html=1;fontFamily=acumin pro light;fillColor=#d5e8d4;strokeColor=#82b366;" parent="rZfcWMC6x7CmexXKer-F-1" vertex="1">
                    <mxGeometry x="600" y="855" width="90" height="35" as="geometry"/>
                </mxCell>
                <mxCell id="rZfcWMC6x7CmexXKer-F-61" value="use case 3" style="rounded=1;whiteSpace=wrap;html=1;fontFamily=acumin pro light;fillColor=#d5e8d4;strokeColor=#82b366;" parent="rZfcWMC6x7CmexXKer-F-1" vertex="1">
                    <mxGeometry x="600" y="955" width="90" height="35" as="geometry"/>
                </mxCell>
                <mxCell id="rZfcWMC6x7CmexXKer-F-62" value="" style="rounded=1;whiteSpace=wrap;html=1;fontFamily=acumin pro light;fillColor=#d5e8d4;strokeColor=#82b366;" parent="rZfcWMC6x7CmexXKer-F-1" vertex="1">
                    <mxGeometry x="750" y="40" width="40" height="40" as="geometry"/>
                </mxCell>
                <mxCell id="rZfcWMC6x7CmexXKer-F-63" value="engagement team" style="text;html=1;align=center;verticalAlign=middle;resizable=0;points=[];autosize=1;strokeColor=none;fillColor=none;" parent="rZfcWMC6x7CmexXKer-F-1" vertex="1">
                    <mxGeometry x="710" y="80" width="120" height="30" as="geometry"/>
                </mxCell>
                <mxCell id="rZfcWMC6x7CmexXKer-F-64" value="step 3" style="text;html=1;align=right;verticalAlign=middle;resizable=0;points=[];autosize=1;strokeColor=none;fillColor=none;" parent="rZfcWMC6x7CmexXKer-F-1" vertex="1">
                    <mxGeometry x="70" y="300" width="60" height="30" as="geometry"/>
                </mxCell>
                <mxCell id="rZfcWMC6x7CmexXKer-F-65" value="step 2" style="text;html=1;align=right;verticalAlign=middle;resizable=0;points=[];autosize=1;strokeColor=none;fillColor=none;" parent="rZfcWMC6x7CmexXKer-F-1" vertex="1">
                    <mxGeometry x="110" y="140" width="60" height="30" as="geometry"/>
                </mxCell>
                <mxCell id="rZfcWMC6x7CmexXKer-F-66" value="step 4" style="text;html=1;align=left;verticalAlign=middle;resizable=0;points=[];autosize=1;strokeColor=none;fillColor=none;" parent="rZfcWMC6x7CmexXKer-F-1" vertex="1">
                    <mxGeometry x="670" y="140" width="60" height="30" as="geometry"/>
                </mxCell>
                <mxCell id="rZfcWMC6x7CmexXKer-F-67" value="step 5" style="text;html=1;align=left;verticalAlign=middle;resizable=0;points=[];autosize=1;strokeColor=none;fillColor=none;" parent="rZfcWMC6x7CmexXKer-F-1" vertex="1">
                    <mxGeometry x="710" y="300" width="60" height="30" as="geometry"/>
                </mxCell>
                <mxCell id="rZfcWMC6x7CmexXKer-F-68" value="step 6" style="text;html=1;align=center;verticalAlign=middle;resizable=0;points=[];autosize=1;strokeColor=none;fillColor=none;" parent="rZfcWMC6x7CmexXKer-F-1" vertex="1">
                    <mxGeometry x="170" y="520" width="60" height="30" as="geometry"/>
                </mxCell>
                <mxCell id="rZfcWMC6x7CmexXKer-F-69" value="step 7" style="text;html=1;align=left;verticalAlign=middle;resizable=0;points=[];autosize=1;strokeColor=none;fillColor=none;" parent="rZfcWMC6x7CmexXKer-F-1" vertex="1">
                    <mxGeometry x="625" y="520" width="60" height="30" as="geometry"/>
                </mxCell>
                <mxCell id="rZfcWMC6x7CmexXKer-F-70" value="step 8" style="text;html=1;align=center;verticalAlign=middle;resizable=0;points=[];autosize=1;strokeColor=none;fillColor=none;" parent="rZfcWMC6x7CmexXKer-F-1" vertex="1">
                    <mxGeometry x="210" y="710" width="60" height="30" as="geometry"/>
                </mxCell>
                <mxCell id="rZfcWMC6x7CmexXKer-F-71" value="step 9" style="text;html=1;align=center;verticalAlign=middle;resizable=0;points=[];autosize=1;strokeColor=none;fillColor=none;" parent="rZfcWMC6x7CmexXKer-F-1" vertex="1">
                    <mxGeometry x="320" y="965" width="60" height="30" as="geometry"/>
                </mxCell>
                <mxCell id="rZfcWMC6x7CmexXKer-F-72" value="step 10" style="text;html=1;align=center;verticalAlign=middle;resizable=0;points=[];autosize=1;strokeColor=none;fillColor=none;" parent="rZfcWMC6x7CmexXKer-F-1" vertex="1">
                    <mxGeometry x="615" y="825" width="60" height="30" as="geometry"/>
                </mxCell>
                <mxCell id="lEf2kKPvKqd58rhF332F-4" value="step 1" style="text;html=1;align=left;verticalAlign=middle;resizable=0;points=[];autosize=1;strokeColor=none;fillColor=none;" parent="rZfcWMC6x7CmexXKer-F-1" vertex="1">
                    <mxGeometry x="15" y="30" width="60" height="30" as="geometry"/>
                </mxCell>
                <mxCell id="lEf2kKPvKqd58rhF332F-5" value="scope definition" style="text;html=1;align=left;verticalAlign=middle;resizable=0;points=[];autosize=1;strokeColor=none;fillColor=none;" parent="rZfcWMC6x7CmexXKer-F-1" vertex="1">
                    <mxGeometry x="15" y="80" width="110" height="30" as="geometry"/>
                </mxCell>
                <mxCell id="ydAHD2BsZVfOTDo1Rgto-0" value="" style="rounded=1;whiteSpace=wrap;html=1;fontFamily=acumin pro thin;" parent="rZfcWMC6x7CmexXKer-F-1" vertex="1">
                    <mxGeometry x="200" y="165" width="80" height="40" as="geometry"/>
                </mxCell>
                <mxCell id="ydAHD2BsZVfOTDo1Rgto-1" value="&lt;font face=&quot;acumin pro light&quot;&gt;GIS datasets&lt;/font&gt;" style="rounded=1;whiteSpace=wrap;html=1;fontFamily=acumin pro thin;" parent="rZfcWMC6x7CmexXKer-F-1" vertex="1">
                    <mxGeometry x="205" y="170" width="80" height="40" as="geometry"/>
                </mxCell>
                <mxCell id="ydAHD2BsZVfOTDo1Rgto-2" value="" style="rounded=1;whiteSpace=wrap;html=1;fontFamily=acumin pro thin;" parent="rZfcWMC6x7CmexXKer-F-1" vertex="1">
                    <mxGeometry x="195" y="230" width="80" height="40" as="geometry"/>
                </mxCell>
                <mxCell id="ydAHD2BsZVfOTDo1Rgto-3" value="" style="rounded=1;whiteSpace=wrap;html=1;fontFamily=acumin pro thin;" parent="rZfcWMC6x7CmexXKer-F-1" vertex="1">
                    <mxGeometry x="200" y="235" width="80" height="40" as="geometry"/>
                </mxCell>
                <mxCell id="ydAHD2BsZVfOTDo1Rgto-4" value="&lt;font face=&quot;acumin pro light&quot;&gt;public databases&lt;/font&gt;" style="rounded=1;whiteSpace=wrap;html=1;fontFamily=acumin pro thin;" parent="rZfcWMC6x7CmexXKer-F-1" vertex="1">
                    <mxGeometry x="205" y="240" width="80" height="40" as="geometry"/>
                </mxCell>
                <mxCell id="ydAHD2BsZVfOTDo1Rgto-5" value="" style="rounded=1;whiteSpace=wrap;html=1;fontFamily=acumin pro thin;" parent="rZfcWMC6x7CmexXKer-F-1" vertex="1">
                    <mxGeometry x="195" y="300" width="80" height="40" as="geometry"/>
                </mxCell>
                <mxCell id="ydAHD2BsZVfOTDo1Rgto-6" value="" style="rounded=1;whiteSpace=wrap;html=1;fontFamily=acumin pro thin;" parent="rZfcWMC6x7CmexXKer-F-1" vertex="1">
                    <mxGeometry x="200" y="305" width="80" height="40" as="geometry"/>
                </mxCell>
                <mxCell id="ydAHD2BsZVfOTDo1Rgto-7" value="&lt;font face=&quot;acumin pro light&quot;&gt;satellite / streetview&lt;/font&gt;" style="rounded=1;whiteSpace=wrap;html=1;fontFamily=acumin pro thin;" parent="rZfcWMC6x7CmexXKer-F-1" vertex="1">
                    <mxGeometry x="205" y="310" width="80" height="40" as="geometry"/>
                </mxCell>
                <mxCell id="ydAHD2BsZVfOTDo1Rgto-8" value="" style="rounded=1;whiteSpace=wrap;html=1;fontFamily=acumin pro thin;" parent="rZfcWMC6x7CmexXKer-F-1" vertex="1">
                    <mxGeometry x="555" y="165" width="80" height="40" as="geometry"/>
                </mxCell>
                <mxCell id="ydAHD2BsZVfOTDo1Rgto-9" value="" style="rounded=1;whiteSpace=wrap;html=1;fontFamily=acumin pro thin;" parent="rZfcWMC6x7CmexXKer-F-1" vertex="1">
                    <mxGeometry x="560" y="170" width="80" height="40" as="geometry"/>
                </mxCell>
                <mxCell id="ydAHD2BsZVfOTDo1Rgto-10" value="&lt;font face=&quot;acumin pro light&quot;&gt;space uses&lt;/font&gt;" style="rounded=1;whiteSpace=wrap;html=1;fontFamily=acumin pro thin;" parent="rZfcWMC6x7CmexXKer-F-1" vertex="1">
                    <mxGeometry x="565" y="175" width="80" height="40" as="geometry"/>
                </mxCell>
                <mxCell id="ydAHD2BsZVfOTDo1Rgto-11" value="" style="rounded=1;whiteSpace=wrap;html=1;fontFamily=acumin pro thin;" parent="rZfcWMC6x7CmexXKer-F-1" vertex="1">
                    <mxGeometry x="555" y="235" width="80" height="40" as="geometry"/>
                </mxCell>
                <mxCell id="ydAHD2BsZVfOTDo1Rgto-12" value="" style="rounded=1;whiteSpace=wrap;html=1;fontFamily=acumin pro thin;" parent="rZfcWMC6x7CmexXKer-F-1" vertex="1">
                    <mxGeometry x="560" y="240" width="80" height="40" as="geometry"/>
                </mxCell>
                <mxCell id="ydAHD2BsZVfOTDo1Rgto-13" value="&lt;font face=&quot;acumin pro light&quot;&gt;envelopes&lt;/font&gt;" style="rounded=1;whiteSpace=wrap;html=1;fontFamily=acumin pro thin;" parent="rZfcWMC6x7CmexXKer-F-1" vertex="1">
                    <mxGeometry x="565" y="245" width="80" height="40" as="geometry"/>
                </mxCell>
                <mxCell id="ydAHD2BsZVfOTDo1Rgto-14" value="" style="rounded=1;whiteSpace=wrap;html=1;fontFamily=acumin pro thin;" parent="rZfcWMC6x7CmexXKer-F-1" vertex="1">
                    <mxGeometry x="555" y="305" width="80" height="40" as="geometry"/>
                </mxCell>
                <mxCell id="ydAHD2BsZVfOTDo1Rgto-15" value="" style="rounded=1;whiteSpace=wrap;html=1;fontFamily=acumin pro thin;" parent="rZfcWMC6x7CmexXKer-F-1" vertex="1">
                    <mxGeometry x="560" y="310" width="80" height="40" as="geometry"/>
                </mxCell>
                <mxCell id="ydAHD2BsZVfOTDo1Rgto-16" value="&lt;div&gt;&lt;font face=&quot;acumin pro light&quot;&gt;hvac&lt;/font&gt;&lt;/div&gt;&lt;div&gt;&lt;font face=&quot;acumin pro light&quot;&gt;systems&lt;/font&gt;&lt;/div&gt;" style="rounded=1;whiteSpace=wrap;html=1;fontFamily=acumin pro thin;" parent="rZfcWMC6x7CmexXKer-F-1" vertex="1">
                    <mxGeometry x="565" y="315" width="80" height="40" as="geometry"/>
                </mxCell>
            </root>
        </mxGraphModel>
    </diagram>
    <diagram name="Copy of Copy of Copy of Copy of Page-1" id="7E97jKu6O-yHAHz7mRWH">
        <mxGraphModel dx="1501" dy="1149" grid="1" gridSize="10" guides="1" tooltips="1" connect="1" arrows="1" fold="1" page="1" pageScale="1" pageWidth="850" pageHeight="1100" math="0" shadow="0">
            <root>
                <mxCell id="jkIsf5dtU7ukBp74JJfk-0"/>
                <mxCell id="jkIsf5dtU7ukBp74JJfk-1" parent="jkIsf5dtU7ukBp74JJfk-0"/>
                <mxCell id="jkIsf5dtU7ukBp74JJfk-2" value="" style="rounded=1;whiteSpace=wrap;html=1;fillColor=none;dashed=1;" parent="jkIsf5dtU7ukBp74JJfk-1" vertex="1">
                    <mxGeometry x="10" y="30" width="820" height="80" as="geometry"/>
                </mxCell>
                <mxCell id="jkIsf5dtU7ukBp74JJfk-3" style="edgeStyle=none;shape=connector;rounded=1;html=1;strokeColor=default;align=center;verticalAlign=middle;fontFamily=Helvetica;fontSize=11;fontColor=default;labelBackgroundColor=default;endArrow=classic;sourcePerimeterSpacing=12;targetPerimeterSpacing=12;" parent="jkIsf5dtU7ukBp74JJfk-1" source="jkIsf5dtU7ukBp74JJfk-4" target="jkIsf5dtU7ukBp74JJfk-30" edge="1">
                    <mxGeometry relative="1" as="geometry"/>
                </mxCell>
                <mxCell id="jkIsf5dtU7ukBp74JJfk-4" value="&lt;font face=&quot;acumin pro&quot;&gt;raw data&lt;/font&gt;" style="whiteSpace=wrap;html=1;rounded=1;strokeColor=#6c8ebf;fontFamily=acumin pro thin;fontSize=12;fillColor=#dae8fc;align=left;verticalAlign=bottom;spacingLeft=10;spacingBottom=10;" parent="jkIsf5dtU7ukBp74JJfk-1" vertex="1">
                    <mxGeometry x="150" y="140" width="180" height="340" as="geometry"/>
                </mxCell>
                <mxCell id="jkIsf5dtU7ukBp74JJfk-5" value="GIS Datasets" style="rounded=1;whiteSpace=wrap;html=1;fontFamily=acumin pro thin;" parent="jkIsf5dtU7ukBp74JJfk-1" vertex="1">
                    <mxGeometry x="170" y="160" width="120" height="60" as="geometry"/>
                </mxCell>
                <mxCell id="jkIsf5dtU7ukBp74JJfk-6" value="GIS Datasets" style="rounded=1;whiteSpace=wrap;html=1;fontFamily=acumin pro thin;" parent="jkIsf5dtU7ukBp74JJfk-1" vertex="1">
                    <mxGeometry x="180" y="170" width="120" height="60" as="geometry"/>
                </mxCell>
                <mxCell id="jkIsf5dtU7ukBp74JJfk-7" value="&lt;font face=&quot;acumin pro light&quot;&gt;GIS datasets&lt;/font&gt;" style="rounded=1;whiteSpace=wrap;html=1;fontFamily=acumin pro thin;" parent="jkIsf5dtU7ukBp74JJfk-1" vertex="1">
                    <mxGeometry x="190" y="180" width="120" height="60" as="geometry"/>
                </mxCell>
                <mxCell id="jkIsf5dtU7ukBp74JJfk-8" value="Public databases" style="rounded=1;whiteSpace=wrap;html=1;fontFamily=acumin pro thin;" parent="jkIsf5dtU7ukBp74JJfk-1" vertex="1">
                    <mxGeometry x="170" y="260" width="120" height="60" as="geometry"/>
                </mxCell>
                <mxCell id="jkIsf5dtU7ukBp74JJfk-9" value="Public databases" style="rounded=1;whiteSpace=wrap;html=1;fontFamily=acumin pro thin;" parent="jkIsf5dtU7ukBp74JJfk-1" vertex="1">
                    <mxGeometry x="180" y="270" width="120" height="60" as="geometry"/>
                </mxCell>
                <mxCell id="jkIsf5dtU7ukBp74JJfk-10" value="public databases" style="rounded=1;whiteSpace=wrap;html=1;fontFamily=acumin pro light;" parent="jkIsf5dtU7ukBp74JJfk-1" vertex="1">
                    <mxGeometry x="190" y="280" width="120" height="60" as="geometry"/>
                </mxCell>
                <mxCell id="jkIsf5dtU7ukBp74JJfk-11" value="" style="rounded=1;whiteSpace=wrap;html=1;fontFamily=acumin pro thin;" parent="jkIsf5dtU7ukBp74JJfk-1" vertex="1">
                    <mxGeometry x="170" y="360" width="120" height="60" as="geometry"/>
                </mxCell>
                <mxCell id="jkIsf5dtU7ukBp74JJfk-12" value="" style="rounded=1;whiteSpace=wrap;html=1;fontFamily=acumin pro thin;" parent="jkIsf5dtU7ukBp74JJfk-1" vertex="1">
                    <mxGeometry x="180" y="370" width="120" height="60" as="geometry"/>
                </mxCell>
                <mxCell id="jkIsf5dtU7ukBp74JJfk-13" value="satellite &amp;amp; streetview" style="rounded=1;whiteSpace=wrap;html=1;fontFamily=acumin pro light;" parent="jkIsf5dtU7ukBp74JJfk-1" vertex="1">
                    <mxGeometry x="190" y="380" width="120" height="60" as="geometry"/>
                </mxCell>
                <mxCell id="jkIsf5dtU7ukBp74JJfk-14" style="edgeStyle=none;shape=connector;rounded=1;html=1;strokeColor=default;align=center;verticalAlign=middle;fontFamily=Helvetica;fontSize=11;fontColor=default;labelBackgroundColor=default;endArrow=classic;sourcePerimeterSpacing=12;targetPerimeterSpacing=12;" parent="jkIsf5dtU7ukBp74JJfk-1" source="jkIsf5dtU7ukBp74JJfk-15" target="jkIsf5dtU7ukBp74JJfk-35" edge="1">
                    <mxGeometry relative="1" as="geometry"/>
                </mxCell>
                <mxCell id="jkIsf5dtU7ukBp74JJfk-15" value="&lt;font face=&quot;acumin pro&quot;&gt;component library&lt;/font&gt;" style="whiteSpace=wrap;html=1;rounded=1;strokeColor=#d6b656;fontFamily=acumin pro thin;fontSize=12;fillColor=#fff2cc;align=left;verticalAlign=bottom;spacingLeft=10;spacingBottom=10;" parent="jkIsf5dtU7ukBp74JJfk-1" vertex="1">
                    <mxGeometry x="510" y="140" width="180" height="340" as="geometry"/>
                </mxCell>
                <mxCell id="jkIsf5dtU7ukBp74JJfk-16" value="GIS Datasets" style="rounded=1;whiteSpace=wrap;html=1;fontFamily=acumin pro thin;" parent="jkIsf5dtU7ukBp74JJfk-1" vertex="1">
                    <mxGeometry x="530" y="160" width="120" height="60" as="geometry"/>
                </mxCell>
                <mxCell id="jkIsf5dtU7ukBp74JJfk-17" value="GIS Datasets" style="rounded=1;whiteSpace=wrap;html=1;fontFamily=acumin pro thin;" parent="jkIsf5dtU7ukBp74JJfk-1" vertex="1">
                    <mxGeometry x="540" y="170" width="120" height="60" as="geometry"/>
                </mxCell>
                <mxCell id="jkIsf5dtU7ukBp74JJfk-18" value="space uses" style="rounded=1;whiteSpace=wrap;html=1;fontFamily=acumin pro light;" parent="jkIsf5dtU7ukBp74JJfk-1" vertex="1">
                    <mxGeometry x="550" y="180" width="120" height="60" as="geometry"/>
                </mxCell>
                <mxCell id="jkIsf5dtU7ukBp74JJfk-19" value="Public databases" style="rounded=1;whiteSpace=wrap;html=1;fontFamily=acumin pro thin;" parent="jkIsf5dtU7ukBp74JJfk-1" vertex="1">
                    <mxGeometry x="530" y="260" width="120" height="60" as="geometry"/>
                </mxCell>
                <mxCell id="jkIsf5dtU7ukBp74JJfk-20" value="Public databases" style="rounded=1;whiteSpace=wrap;html=1;fontFamily=acumin pro thin;" parent="jkIsf5dtU7ukBp74JJfk-1" vertex="1">
                    <mxGeometry x="540" y="270" width="120" height="60" as="geometry"/>
                </mxCell>
                <mxCell id="jkIsf5dtU7ukBp74JJfk-21" value="envelopes" style="rounded=1;whiteSpace=wrap;html=1;fontFamily=acumin pro light;" parent="jkIsf5dtU7ukBp74JJfk-1" vertex="1">
                    <mxGeometry x="550" y="280" width="120" height="60" as="geometry"/>
                </mxCell>
                <mxCell id="jkIsf5dtU7ukBp74JJfk-22" value="Satellite &amp;amp; streetview CV extraction" style="rounded=1;whiteSpace=wrap;html=1;fontFamily=acumin pro thin;" parent="jkIsf5dtU7ukBp74JJfk-1" vertex="1">
                    <mxGeometry x="530" y="360" width="120" height="60" as="geometry"/>
                </mxCell>
                <mxCell id="jkIsf5dtU7ukBp74JJfk-23" value="Satellite &amp;amp; streetview CV extraction" style="rounded=1;whiteSpace=wrap;html=1;fontFamily=acumin pro thin;" parent="jkIsf5dtU7ukBp74JJfk-1" vertex="1">
                    <mxGeometry x="540" y="370" width="120" height="60" as="geometry"/>
                </mxCell>
                <mxCell id="jkIsf5dtU7ukBp74JJfk-24" value="HVAC systems" style="rounded=1;whiteSpace=wrap;html=1;fontFamily=acumin pro light;" parent="jkIsf5dtU7ukBp74JJfk-1" vertex="1">
                    <mxGeometry x="550" y="380" width="120" height="60" as="geometry"/>
                </mxCell>
                <mxCell id="jkIsf5dtU7ukBp74JJfk-25" style="edgeStyle=orthogonalEdgeStyle;shape=connector;rounded=1;html=1;strokeColor=default;align=center;verticalAlign=middle;fontFamily=Helvetica;fontSize=11;fontColor=default;labelBackgroundColor=default;endArrow=classic;sourcePerimeterSpacing=12;targetPerimeterSpacing=12;" parent="jkIsf5dtU7ukBp74JJfk-1" source="jkIsf5dtU7ukBp74JJfk-26" target="jkIsf5dtU7ukBp74JJfk-30" edge="1">
                    <mxGeometry relative="1" as="geometry">
                        <Array as="points">
                            <mxPoint x="70" y="660"/>
                        </Array>
                    </mxGeometry>
                </mxCell>
                <mxCell id="jkIsf5dtU7ukBp74JJfk-26" value="feature extraction&lt;div&gt;rules &amp;amp; methods&lt;/div&gt;" style="rounded=1;whiteSpace=wrap;html=1;fontFamily=acumin pro light;fillColor=#dae8fc;strokeColor=#6c8ebf;" parent="jkIsf5dtU7ukBp74JJfk-1" vertex="1">
                    <mxGeometry x="10" y="420" width="120" height="60" as="geometry"/>
                </mxCell>
                <mxCell id="jkIsf5dtU7ukBp74JJfk-27" style="edgeStyle=orthogonalEdgeStyle;shape=connector;rounded=1;html=1;strokeColor=default;align=center;verticalAlign=middle;fontFamily=Helvetica;fontSize=11;fontColor=default;labelBackgroundColor=default;endArrow=classic;sourcePerimeterSpacing=12;targetPerimeterSpacing=12;" parent="jkIsf5dtU7ukBp74JJfk-1" source="jkIsf5dtU7ukBp74JJfk-28" target="jkIsf5dtU7ukBp74JJfk-35" edge="1">
                    <mxGeometry relative="1" as="geometry">
                        <Array as="points">
                            <mxPoint x="770" y="660"/>
                        </Array>
                    </mxGeometry>
                </mxCell>
                <mxCell id="jkIsf5dtU7ukBp74JJfk-28" value="semantic mapping rules" style="rounded=1;whiteSpace=wrap;html=1;fontFamily=acumin pro light;fillColor=#fff2cc;strokeColor=#d6b656;" parent="jkIsf5dtU7ukBp74JJfk-1" vertex="1">
                    <mxGeometry x="710" y="420" width="120" height="60" as="geometry"/>
                </mxCell>
                <mxCell id="jkIsf5dtU7ukBp74JJfk-29" style="edgeStyle=none;shape=connector;rounded=1;html=1;strokeColor=default;align=center;verticalAlign=middle;fontFamily=Helvetica;fontSize=11;fontColor=default;labelBackgroundColor=default;endArrow=classic;sourcePerimeterSpacing=12;targetPerimeterSpacing=24;" parent="jkIsf5dtU7ukBp74JJfk-1" source="jkIsf5dtU7ukBp74JJfk-30" target="jkIsf5dtU7ukBp74JJfk-33" edge="1">
                    <mxGeometry relative="1" as="geometry"/>
                </mxCell>
                <mxCell id="jkIsf5dtU7ukBp74JJfk-30" value="&lt;i style=&quot;&quot;&gt;&lt;font style=&quot;color: rgb(255, 255, 255);&quot;&gt;transform&lt;/font&gt;&lt;/i&gt;" style="rhombus;whiteSpace=wrap;html=1;fillColor=#000000;fontColor=#FFFFFF;fontFamily=acumin pro;" parent="jkIsf5dtU7ukBp74JJfk-1" vertex="1">
                    <mxGeometry x="200" y="620" width="80" height="80" as="geometry"/>
                </mxCell>
                <mxCell id="jkIsf5dtU7ukBp74JJfk-31" value="Semantic building description layer" style="rounded=1;whiteSpace=wrap;html=1;fontFamily=acumin pro thin;fillColor=#e1d5e7;strokeColor=#9673a6;" parent="jkIsf5dtU7ukBp74JJfk-1" vertex="1">
                    <mxGeometry x="360" y="520" width="120" height="270" as="geometry"/>
                </mxCell>
                <mxCell id="jkIsf5dtU7ukBp74JJfk-32" style="edgeStyle=orthogonalEdgeStyle;shape=connector;rounded=1;html=1;strokeColor=default;align=center;verticalAlign=middle;fontFamily=Helvetica;fontSize=11;fontColor=default;labelBackgroundColor=default;endArrow=classic;sourcePerimeterSpacing=16;targetPerimeterSpacing=12;" parent="jkIsf5dtU7ukBp74JJfk-1" source="jkIsf5dtU7ukBp74JJfk-33" target="jkIsf5dtU7ukBp74JJfk-35" edge="1">
                    <mxGeometry relative="1" as="geometry"/>
                </mxCell>
                <mxCell id="jkIsf5dtU7ukBp74JJfk-33" value="Semantic building description layer" style="rounded=1;whiteSpace=wrap;html=1;fontFamily=acumin pro thin;fillColor=#e1d5e7;strokeColor=#9673a6;" parent="jkIsf5dtU7ukBp74JJfk-1" vertex="1">
                    <mxGeometry x="365" y="525" width="120" height="270" as="geometry"/>
                </mxCell>
                <mxCell id="jkIsf5dtU7ukBp74JJfk-34" style="edgeStyle=orthogonalEdgeStyle;shape=connector;rounded=1;html=1;strokeColor=default;align=center;verticalAlign=middle;fontFamily=Helvetica;fontSize=11;fontColor=default;labelBackgroundColor=default;endArrow=classic;sourcePerimeterSpacing=12;targetPerimeterSpacing=12;" parent="jkIsf5dtU7ukBp74JJfk-1" source="jkIsf5dtU7ukBp74JJfk-35" target="jkIsf5dtU7ukBp74JJfk-38" edge="1">
                    <mxGeometry relative="1" as="geometry">
                        <Array as="points">
                            <mxPoint x="600" y="875"/>
                        </Array>
                    </mxGeometry>
                </mxCell>
                <mxCell id="jkIsf5dtU7ukBp74JJfk-35" value="&lt;i style=&quot;&quot;&gt;&lt;font style=&quot;color: rgb(255, 255, 255);&quot;&gt;compile&lt;/font&gt;&lt;/i&gt;" style="rhombus;whiteSpace=wrap;html=1;fillColor=#000000;fontColor=#FFFFFF;fontFamily=acumin pro;" parent="jkIsf5dtU7ukBp74JJfk-1" vertex="1">
                    <mxGeometry x="560" y="620" width="80" height="80" as="geometry"/>
                </mxCell>
                <mxCell id="jkIsf5dtU7ukBp74JJfk-36" value="" style="rounded=1;whiteSpace=wrap;html=1;fontFamily=acumin pro thin;fillColor=#e1d5e7;strokeColor=#9673a6;" parent="jkIsf5dtU7ukBp74JJfk-1" vertex="1">
                    <mxGeometry x="365" y="845" width="120" height="40" as="geometry"/>
                </mxCell>
                <mxCell id="jkIsf5dtU7ukBp74JJfk-37" style="edgeStyle=orthogonalEdgeStyle;shape=connector;rounded=1;html=1;strokeColor=default;align=center;verticalAlign=middle;fontFamily=Helvetica;fontSize=11;fontColor=default;labelBackgroundColor=default;endArrow=classic;sourcePerimeterSpacing=12;targetPerimeterSpacing=12;" parent="jkIsf5dtU7ukBp74JJfk-1" source="jkIsf5dtU7ukBp74JJfk-38" target="jkIsf5dtU7ukBp74JJfk-41" edge="1">
                    <mxGeometry relative="1" as="geometry"/>
                </mxCell>
                <mxCell id="jkIsf5dtU7ukBp74JJfk-38" value="" style="rounded=1;whiteSpace=wrap;html=1;fontFamily=acumin pro thin;fillColor=#e1d5e7;strokeColor=#9673a6;" parent="jkIsf5dtU7ukBp74JJfk-1" vertex="1">
                    <mxGeometry x="370" y="850" width="120" height="40" as="geometry"/>
                </mxCell>
                <mxCell id="jkIsf5dtU7ukBp74JJfk-39" value="&lt;font face=&quot;acumin pro light&quot;&gt;energy models&lt;/font&gt;" style="rounded=1;whiteSpace=wrap;html=1;fontFamily=acumin pro thin;fillColor=#e1d5e7;strokeColor=#9673a6;" parent="jkIsf5dtU7ukBp74JJfk-1" vertex="1">
                    <mxGeometry x="375" y="855" width="120" height="39.15" as="geometry"/>
                </mxCell>
                <mxCell id="jkIsf5dtU7ukBp74JJfk-40" style="edgeStyle=orthogonalEdgeStyle;shape=connector;rounded=1;html=1;strokeColor=default;align=center;verticalAlign=middle;fontFamily=Helvetica;fontSize=11;fontColor=default;labelBackgroundColor=default;endArrow=classic;sourcePerimeterSpacing=12;targetPerimeterSpacing=12;" parent="jkIsf5dtU7ukBp74JJfk-1" source="jkIsf5dtU7ukBp74JJfk-41" target="jkIsf5dtU7ukBp74JJfk-53" edge="1">
                    <mxGeometry relative="1" as="geometry">
                        <Array as="points">
                            <mxPoint x="240" y="1005"/>
                        </Array>
                    </mxGeometry>
                </mxCell>
                <mxCell id="jkIsf5dtU7ukBp74JJfk-41" value="&lt;i style=&quot;&quot;&gt;&lt;font style=&quot;color: rgb(255, 255, 255);&quot;&gt;execute&lt;/font&gt;&lt;/i&gt;" style="rhombus;whiteSpace=wrap;html=1;fillColor=#000000;fontColor=#FFFFFF;fontFamily=acumin pro;" parent="jkIsf5dtU7ukBp74JJfk-1" vertex="1">
                    <mxGeometry x="200" y="830" width="80" height="80" as="geometry"/>
                </mxCell>
                <mxCell id="jkIsf5dtU7ukBp74JJfk-42" value="" style="group" parent="jkIsf5dtU7ukBp74JJfk-1" vertex="1" connectable="0">
                    <mxGeometry x="370" y="530" width="120" height="270" as="geometry"/>
                </mxCell>
                <mxCell id="jkIsf5dtU7ukBp74JJfk-43" value="&lt;font face=&quot;acumin pro light&quot;&gt;semantic building description layer&lt;/font&gt;" style="rounded=1;whiteSpace=wrap;html=1;fontFamily=acumin pro thin;fillColor=#e1d5e7;strokeColor=#9673a6;align=left;verticalAlign=bottom;spacingLeft=10;spacingBottom=10;" parent="jkIsf5dtU7ukBp74JJfk-42" vertex="1">
                    <mxGeometry width="120" height="270" as="geometry"/>
                </mxCell>
                <mxCell id="jkIsf5dtU7ukBp74JJfk-44" value="&lt;font face=&quot;acumin pro light&quot;&gt;geometry&lt;/font&gt;" style="rounded=1;whiteSpace=wrap;html=1;fontFamily=acumin pro thin;" parent="jkIsf5dtU7ukBp74JJfk-42" vertex="1">
                    <mxGeometry x="20" y="15" width="80" height="25" as="geometry"/>
                </mxCell>
                <mxCell id="jkIsf5dtU7ukBp74JJfk-45" value="&lt;font face=&quot;acumin pro light&quot;&gt;typology&lt;/font&gt;" style="rounded=1;whiteSpace=wrap;html=1;fontFamily=acumin pro thin;" parent="jkIsf5dtU7ukBp74JJfk-42" vertex="1">
                    <mxGeometry x="20" y="50" width="80" height="25" as="geometry"/>
                </mxCell>
                <mxCell id="jkIsf5dtU7ukBp74JJfk-46" value="&lt;font face=&quot;acumin pro light&quot;&gt;program&lt;/font&gt;" style="rounded=1;whiteSpace=wrap;html=1;fontFamily=acumin pro thin;" parent="jkIsf5dtU7ukBp74JJfk-42" vertex="1">
                    <mxGeometry x="20" y="85" width="80" height="25" as="geometry"/>
                </mxCell>
                <mxCell id="jkIsf5dtU7ukBp74JJfk-47" value="&lt;font face=&quot;acumin pro light&quot;&gt;age&lt;/font&gt;" style="rounded=1;whiteSpace=wrap;html=1;fontFamily=acumin pro thin;" parent="jkIsf5dtU7ukBp74JJfk-42" vertex="1">
                    <mxGeometry x="20" y="120" width="80" height="25" as="geometry"/>
                </mxCell>
                <mxCell id="jkIsf5dtU7ukBp74JJfk-48" value="&lt;font face=&quot;acumin pro light&quot;&gt;fuel source&lt;/font&gt;" style="rounded=1;whiteSpace=wrap;html=1;fontFamily=acumin pro thin;" parent="jkIsf5dtU7ukBp74JJfk-42" vertex="1">
                    <mxGeometry x="20" y="155" width="80" height="25" as="geometry"/>
                </mxCell>
                <mxCell id="jkIsf5dtU7ukBp74JJfk-49" value="&lt;font face=&quot;acumin pro light&quot;&gt;...&lt;/font&gt;" style="rounded=1;whiteSpace=wrap;html=1;fontFamily=acumin pro thin;dashed=1;" parent="jkIsf5dtU7ukBp74JJfk-42" vertex="1">
                    <mxGeometry x="20" y="190" width="80" height="25" as="geometry"/>
                </mxCell>
                <mxCell id="jkIsf5dtU7ukBp74JJfk-50" style="edgeStyle=orthogonalEdgeStyle;shape=connector;rounded=1;html=1;strokeColor=default;align=center;verticalAlign=middle;fontFamily=Helvetica;fontSize=11;fontColor=default;labelBackgroundColor=default;endArrow=classic;sourcePerimeterSpacing=12;targetPerimeterSpacing=12;" parent="jkIsf5dtU7ukBp74JJfk-1" source="jkIsf5dtU7ukBp74JJfk-53" target="jkIsf5dtU7ukBp74JJfk-60" edge="1">
                    <mxGeometry relative="1" as="geometry"/>
                </mxCell>
                <mxCell id="jkIsf5dtU7ukBp74JJfk-51" style="edgeStyle=orthogonalEdgeStyle;shape=connector;rounded=1;html=1;strokeColor=default;align=center;verticalAlign=middle;fontFamily=Helvetica;fontSize=11;fontColor=default;labelBackgroundColor=default;endArrow=classic;sourcePerimeterSpacing=12;targetPerimeterSpacing=12;" parent="jkIsf5dtU7ukBp74JJfk-1" source="jkIsf5dtU7ukBp74JJfk-53" target="jkIsf5dtU7ukBp74JJfk-61" edge="1">
                    <mxGeometry relative="1" as="geometry"/>
                </mxCell>
                <mxCell id="jkIsf5dtU7ukBp74JJfk-52" style="edgeStyle=orthogonalEdgeStyle;shape=connector;rounded=1;html=1;strokeColor=default;align=center;verticalAlign=middle;fontFamily=Helvetica;fontSize=11;fontColor=default;labelBackgroundColor=default;endArrow=classic;sourcePerimeterSpacing=12;targetPerimeterSpacing=12;" parent="jkIsf5dtU7ukBp74JJfk-1" source="jkIsf5dtU7ukBp74JJfk-53" target="jkIsf5dtU7ukBp74JJfk-62" edge="1">
                    <mxGeometry relative="1" as="geometry"/>
                </mxCell>
                <mxCell id="jkIsf5dtU7ukBp74JJfk-53" value="results database" style="shape=datastore;whiteSpace=wrap;html=1;fillColor=#e1d5e7;strokeColor=#9673a6;" parent="jkIsf5dtU7ukBp74JJfk-1" vertex="1">
                    <mxGeometry x="390" y="940" width="80" height="140" as="geometry"/>
                </mxCell>
                <mxCell id="jkIsf5dtU7ukBp74JJfk-54" value="" style="rounded=1;whiteSpace=wrap;html=1;fontFamily=acumin pro light;fillColor=#dae8fc;strokeColor=#6c8ebf;align=left;" parent="jkIsf5dtU7ukBp74JJfk-1" vertex="1">
                    <mxGeometry x="220" y="40" width="40" height="40" as="geometry"/>
                </mxCell>
                <mxCell id="jkIsf5dtU7ukBp74JJfk-55" value="GIS team" style="text;html=1;align=center;verticalAlign=middle;resizable=0;points=[];autosize=1;strokeColor=none;fillColor=none;" parent="jkIsf5dtU7ukBp74JJfk-1" vertex="1">
                    <mxGeometry x="205" y="80" width="70" height="30" as="geometry"/>
                </mxCell>
                <mxCell id="jkIsf5dtU7ukBp74JJfk-56" value="" style="rounded=1;whiteSpace=wrap;html=1;fontFamily=acumin pro light;fillColor=#fff2cc;strokeColor=#d6b656;" parent="jkIsf5dtU7ukBp74JJfk-1" vertex="1">
                    <mxGeometry x="570" y="40" width="40" height="40" as="geometry"/>
                </mxCell>
                <mxCell id="jkIsf5dtU7ukBp74JJfk-57" value="constructions team" style="text;html=1;align=center;verticalAlign=middle;resizable=0;points=[];autosize=1;strokeColor=none;fillColor=none;" parent="jkIsf5dtU7ukBp74JJfk-1" vertex="1">
                    <mxGeometry x="530" y="80" width="120" height="30" as="geometry"/>
                </mxCell>
                <mxCell id="jkIsf5dtU7ukBp74JJfk-58" value="" style="rounded=1;whiteSpace=wrap;html=1;fontFamily=acumin pro light;fillColor=#e1d5e7;strokeColor=#9673a6;" parent="jkIsf5dtU7ukBp74JJfk-1" vertex="1">
                    <mxGeometry x="400" y="40" width="40" height="40" as="geometry"/>
                </mxCell>
                <mxCell id="jkIsf5dtU7ukBp74JJfk-59" value="SWE team" style="text;html=1;align=center;verticalAlign=middle;resizable=0;points=[];autosize=1;strokeColor=none;fillColor=none;" parent="jkIsf5dtU7ukBp74JJfk-1" vertex="1">
                    <mxGeometry x="380" y="80" width="80" height="30" as="geometry"/>
                </mxCell>
                <mxCell id="jkIsf5dtU7ukBp74JJfk-60" value="use case 2" style="rounded=1;whiteSpace=wrap;html=1;fontFamily=acumin pro light;fillColor=#d5e8d4;strokeColor=#82b366;" parent="jkIsf5dtU7ukBp74JJfk-1" vertex="1">
                    <mxGeometry x="600" y="992.5" width="90" height="35" as="geometry"/>
                </mxCell>
                <mxCell id="jkIsf5dtU7ukBp74JJfk-61" value="use case 1" style="rounded=1;whiteSpace=wrap;html=1;fontFamily=acumin pro light;fillColor=#d5e8d4;strokeColor=#82b366;" parent="jkIsf5dtU7ukBp74JJfk-1" vertex="1">
                    <mxGeometry x="600" y="940" width="90" height="35" as="geometry"/>
                </mxCell>
                <mxCell id="jkIsf5dtU7ukBp74JJfk-62" value="use case 3" style="rounded=1;whiteSpace=wrap;html=1;fontFamily=acumin pro light;fillColor=#d5e8d4;strokeColor=#82b366;" parent="jkIsf5dtU7ukBp74JJfk-1" vertex="1">
                    <mxGeometry x="600" y="1040" width="90" height="35" as="geometry"/>
                </mxCell>
                <mxCell id="jkIsf5dtU7ukBp74JJfk-63" value="" style="rounded=1;whiteSpace=wrap;html=1;fontFamily=acumin pro light;fillColor=#d5e8d4;strokeColor=#82b366;" parent="jkIsf5dtU7ukBp74JJfk-1" vertex="1">
                    <mxGeometry x="750" y="40" width="40" height="40" as="geometry"/>
                </mxCell>
                <mxCell id="jkIsf5dtU7ukBp74JJfk-64" value="engagement team" style="text;html=1;align=center;verticalAlign=middle;resizable=0;points=[];autosize=1;strokeColor=none;fillColor=none;" parent="jkIsf5dtU7ukBp74JJfk-1" vertex="1">
                    <mxGeometry x="710" y="80" width="120" height="30" as="geometry"/>
                </mxCell>
                <mxCell id="jkIsf5dtU7ukBp74JJfk-65" value="step 3" style="text;html=1;align=left;verticalAlign=middle;resizable=0;points=[];autosize=1;strokeColor=none;fillColor=none;" parent="jkIsf5dtU7ukBp74JJfk-1" vertex="1">
                    <mxGeometry x="12.5" y="390" width="60" height="30" as="geometry"/>
                </mxCell>
                <mxCell id="jkIsf5dtU7ukBp74JJfk-66" value="step 2" style="text;html=1;align=right;verticalAlign=middle;resizable=0;points=[];autosize=1;strokeColor=none;fillColor=none;" parent="jkIsf5dtU7ukBp74JJfk-1" vertex="1">
                    <mxGeometry x="80" y="140" width="60" height="30" as="geometry"/>
                </mxCell>
                <mxCell id="jkIsf5dtU7ukBp74JJfk-67" value="step 4" style="text;html=1;align=left;verticalAlign=middle;resizable=0;points=[];autosize=1;strokeColor=none;fillColor=none;" parent="jkIsf5dtU7ukBp74JJfk-1" vertex="1">
                    <mxGeometry x="700" y="140" width="60" height="30" as="geometry"/>
                </mxCell>
                <mxCell id="jkIsf5dtU7ukBp74JJfk-68" value="step 5" style="text;html=1;align=right;verticalAlign=middle;resizable=0;points=[];autosize=1;strokeColor=none;fillColor=none;" parent="jkIsf5dtU7ukBp74JJfk-1" vertex="1">
                    <mxGeometry x="767.5" y="390" width="60" height="30" as="geometry"/>
                </mxCell>
                <mxCell id="jkIsf5dtU7ukBp74JJfk-69" value="step 6" style="text;html=1;align=center;verticalAlign=middle;resizable=0;points=[];autosize=1;strokeColor=none;fillColor=none;" parent="jkIsf5dtU7ukBp74JJfk-1" vertex="1">
                    <mxGeometry x="170" y="610" width="60" height="30" as="geometry"/>
                </mxCell>
                <mxCell id="jkIsf5dtU7ukBp74JJfk-70" value="step 7" style="text;html=1;align=left;verticalAlign=middle;resizable=0;points=[];autosize=1;strokeColor=none;fillColor=none;" parent="jkIsf5dtU7ukBp74JJfk-1" vertex="1">
                    <mxGeometry x="625" y="610" width="60" height="30" as="geometry"/>
                </mxCell>
                <mxCell id="jkIsf5dtU7ukBp74JJfk-71" value="step 8" style="text;html=1;align=center;verticalAlign=middle;resizable=0;points=[];autosize=1;strokeColor=none;fillColor=none;" parent="jkIsf5dtU7ukBp74JJfk-1" vertex="1">
                    <mxGeometry x="210" y="795" width="60" height="30" as="geometry"/>
                </mxCell>
                <mxCell id="jkIsf5dtU7ukBp74JJfk-72" value="step 9" style="text;html=1;align=center;verticalAlign=middle;resizable=0;points=[];autosize=1;strokeColor=none;fillColor=none;" parent="jkIsf5dtU7ukBp74JJfk-1" vertex="1">
                    <mxGeometry x="320" y="1050" width="60" height="30" as="geometry"/>
                </mxCell>
                <mxCell id="jkIsf5dtU7ukBp74JJfk-73" value="step 10" style="text;html=1;align=center;verticalAlign=middle;resizable=0;points=[];autosize=1;strokeColor=none;fillColor=none;" parent="jkIsf5dtU7ukBp74JJfk-1" vertex="1">
                    <mxGeometry x="615" y="910" width="60" height="30" as="geometry"/>
                </mxCell>
                <mxCell id="jkIsf5dtU7ukBp74JJfk-74" value="step 1" style="text;html=1;align=left;verticalAlign=middle;resizable=0;points=[];autosize=1;strokeColor=none;fillColor=none;" parent="jkIsf5dtU7ukBp74JJfk-1" vertex="1">
                    <mxGeometry x="15" y="30" width="60" height="30" as="geometry"/>
                </mxCell>
                <mxCell id="jkIsf5dtU7ukBp74JJfk-75" value="scope definition" style="text;html=1;align=left;verticalAlign=middle;resizable=0;points=[];autosize=1;strokeColor=none;fillColor=none;" parent="jkIsf5dtU7ukBp74JJfk-1" vertex="1">
                    <mxGeometry x="15" y="80" width="110" height="30" as="geometry"/>
                </mxCell>
            </root>
        </mxGraphModel>
    </diagram>
</mxfile>
